<?xml version="1.0" standalone="no"?>
<!DOCTYPE svg PUBLIC "-//W3C//DTD SVG 20010904//EN"
 "http://www.w3.org/TR/2001/REC-SVG-20010904/DTD/svg10.dtd">
<svg version="1.0" xmlns="http://www.w3.org/2000/svg"
 width="100%" height="100%" viewBox="0 0 450.31 334.9"
 preserveAspectRatio="xMidYMid meet">
<g transform="translate(0.000000,1069.000000) scale(0.100000,-0.100000)"
fill="#0000000c" stroke="none">
<path d="M2186 10670 c4 -14 22 -56 42 -95 19 -38 59 -123 88 -187 61 -136
131 -247 180 -284 61 -47 146 -34 301 45 77 38 146 101 172 154 23 48 27 132
10 207 -14 59 -17 86 -18 138 -1 23 -6 42 -11 42 -6 0 -8 -11 -4 -25 11 -44
-15 -121 -56 -168 -66 -75 -259 -159 -326 -143 -47 12 -114 93 -183 219 -35
65 -65 116 -68 114 -2 -3 22 -51 53 -108 138 -255 191 -281 378 -191 101 48
157 90 182 138 10 19 22 34 25 34 10 0 22 -57 15 -69 -4 -5 -2 -12 4 -16 17
-10 11 -117 -9 -160 -27 -60 -101 -121 -208 -173 -75 -36 -110 -47 -159 -50
l-63 -4 -55 55 c-47 46 -68 82 -136 224 -115 240 -161 332 -154 303z"/>
<path d="M2210 10687 c0 -10 89 -187 95 -187 2 0 -13 35 -33 78 -44 89 -61
120 -62 109z"/>
<path d="M2244 10678 c3 -7 9 -21 12 -30 4 -10 10 -18 15 -18 5 0 3 14 -6 30
-15 28 -33 44 -21 18z"/>
<path d="M2282 10665 c6 -14 15 -25 19 -25 5 0 3 11 -3 25 -6 14 -15 25 -19
25 -5 0 -3 -11 3 -25z"/>
<path d="M2363 10650 c12 -22 26 -40 30 -40 5 0 -2 18 -14 40 -13 22 -26 40
-30 40 -4 0 2 -18 14 -40z"/>
<path d="M2402 10653 c64 -111 137 -183 185 -183 10 0 -1 9 -24 19 -41 19
-104 88 -146 163 -12 21 -25 38 -29 38 -4 0 2 -17 14 -37z"/>
<path d="M2431 10686 c-1 -15 70 -105 100 -127 34 -24 80 -27 136 -9 65 21
169 80 199 112 l29 32 -41 -32 c-69 -53 -202 -112 -252 -112 -40 0 -50 5 -91
48 -26 26 -54 58 -63 72 -9 14 -17 21 -17 16z"/>
<path d="M2500 10655 c18 -19 36 -33 38 -30 2 2 11 -3 20 -12 11 -11 28 -14
57 -11 44 5 165 56 165 69 0 4 -28 -5 -62 -21 -84 -40 -122 -46 -153 -26 -14
9 -25 14 -25 10 0 -3 -12 8 -26 25 -14 17 -31 31 -37 31 -6 0 4 -16 23 -35z"/>
<path d="M2557 10678 c2 -5 26 -8 54 -8 27 0 49 3 49 8 0 4 -24 7 -54 7 -30 0
-52 -3 -49 -7z"/>
<path d="M2790 10679 c0 -5 5 -7 10 -4 6 3 10 8 10 11 0 2 -4 4 -10 4 -5 0
-10 -5 -10 -11z"/>
<path d="M2916 10670 c3 -14 6 -33 7 -42 1 -10 5 -14 10 -9 4 4 1 23 -8 42
-10 23 -13 26 -9 9z"/>
<path d="M3052 10577 c72 -282 21 -407 -209 -507 -176 -77 -202 -91 -257 -141
-64 -58 -86 -100 -86 -163 0 -60 19 -104 64 -150 67 -66 171 -106 406 -156
345 -73 535 -140 676 -238 108 -75 172 -146 329 -362 54 -74 130 -173 170
-220 117 -137 357 -363 354 -333 0 4 -37 37 -81 73 -135 110 -301 299 -493
565 -148 205 -267 307 -437 377 -42 17 -75 35 -72 39 2 4 -6 5 -18 1 -16 -4
-19 -2 -13 8 5 8 4 11 -3 6 -16 -10 -63 4 -55 17 3 6 1 7 -5 3 -7 -4 -56 4
-109 18 -54 14 -179 44 -277 66 -251 55 -360 110 -408 203 -29 57 -22 133 18
189 37 53 116 111 139 102 14 -6 10 -13 -24 -48 -120 -123 -84 -273 87 -360
57 -29 161 -61 222 -70 25 -3 4 5 -47 18 -209 55 -323 146 -323 259 0 49 46
132 95 173 24 19 79 53 122 74 43 22 75 39 72 40 -12 0 -124 -52 -151 -71 -19
-14 -33 -17 -43 -11 -12 6 -4 14 37 32 172 75 260 124 291 160 23 28 37 36 47
30 19 -11 2 -31 -61 -72 -60 -38 -64 -48 -8 -16 106 59 155 161 147 302 -5 80
-47 276 -59 276 -3 0 5 -44 18 -97 33 -135 40 -235 20 -303 -19 -66 -37 -93
-55 -82 -10 7 -9 17 4 48 26 62 22 179 -10 311 -15 62 -31 115 -35 117 -4 3 5
-45 21 -107z"/>
<path d="M3057 10666 c3 -15 10 -29 15 -32 6 -4 7 2 3 17 -10 35 -23 45 -18
15z"/>
<path d="M3118 10665 c2 -14 9 -28 15 -32 7 -4 8 0 4 11 -4 10 -7 24 -7 32 0
8 -4 14 -9 14 -4 0 -6 -11 -3 -25z"/>
<path d="M3145 10680 c3 -5 8 -10 11 -10 2 0 4 5 4 10 0 6 -5 10 -11 10 -5 0
-7 -4 -4 -10z"/>
<path d="M3175 10680 c3 -5 8 -10 11 -10 2 0 4 5 4 10 0 6 -5 10 -11 10 -5 0
-7 -4 -4 -10z"/>
<path d="M3211 10685 c-1 -6 8 -53 20 -105 28 -131 24 -265 -11 -333 -25 -51
-60 -90 -46 -52 4 11 4 16 0 13 -4 -4 -15 -3 -25 2 -12 7 -20 6 -25 -2 -4 -6
-3 -8 4 -4 6 3 18 -1 27 -10 20 -21 10 -33 -66 -81 -68 -41 -79 -55 -17 -21
60 33 136 105 158 148 24 47 38 134 33 198 -8 95 -50 291 -52 247z"/>
<path d="M3240 10676 c0 -8 5 -18 10 -21 6 -3 10 1 10 9 0 8 -4 18 -10 21 -5
3 -10 -1 -10 -9z"/>
<path d="M3280 10650 c4 -22 11 -44 15 -48 10 -9 -4 71 -15 81 -4 5 -4 -10 0
-33z"/>
<path d="M3310 10654 c5 -19 12 -39 16 -42 4 -4 4 4 1 18 -4 14 -7 33 -7 43 0
9 -4 17 -9 17 -5 0 -5 -15 -1 -36z"/>
<path d="M3373 10670 c3 -14 9 -49 13 -77 3 -29 10 -53 13 -53 9 0 -14 139
-24 148 -4 4 -5 -4 -2 -18z"/>
<path d="M3406 10675 c4 -8 8 -15 10 -15 2 0 4 7 4 15 0 8 -4 15 -10 15 -5 0
-7 -7 -4 -15z"/>
<path d="M3457 10603 c18 -114 11 -231 -17 -307 -24 -63 -63 -107 -195 -222
-87 -76 -126 -143 -127 -218 0 -29 5 -63 12 -75 23 -45 85 -103 134 -128 67
-34 109 -45 326 -88 442 -87 602 -151 853 -341 31 -24 57 -40 57 -35 0 14
-208 156 -303 206 -124 66 -295 118 -572 174 -137 28 -270 58 -295 67 -171 62
-240 185 -176 312 31 61 172 200 190 187 3 -3 4 -2 1 2 -8 11 57 73 69 66 6
-3 8 -3 4 1 -3 4 4 29 18 55 36 73 48 143 41 256 -7 113 -16 175 -26 175 -4 0
-1 -39 6 -87z"/>
<path d="M3532 10665 c0 -16 3 -39 8 -50 8 -18 9 -18 8 5 0 14 -4 36 -8 50 -8
24 -8 24 -8 -5z"/>
<path d="M3570 10665 c0 -14 4 -25 9 -25 4 0 6 11 3 25 -2 14 -6 25 -8 25 -2
0 -4 -11 -4 -25z"/>
<path d="M3612 10675 c0 -11 4 -31 8 -45 l8 -25 0 25 c0 14 -3 34 -8 45 -9 20
-9 20 -8 0z"/>
<path d="M3694 10581 c0 -63 4 -103 7 -90 9 32 9 147 0 179 -4 14 -7 -26 -7
-89z"/>
<path d="M3727 10669 c4 -13 8 -18 11 -10 2 7 -1 18 -6 23 -8 8 -9 4 -5 -13z"/>
<path d="M3763 10605 c0 -49 -3 -100 -7 -112 -4 -14 -3 -23 3 -23 15 0 25 123
14 177 -9 45 -9 42 -10 -42z"/>
<path d="M3821 10674 c0 -11 3 -14 6 -6 3 7 2 16 -1 19 -3 4 -6 -2 -5 -13z"/>
<path d="M3874 10617 c-1 -129 -19 -178 -138 -382 -65 -113 -78 -167 -56 -245
25 -89 126 -155 280 -184 143 -27 533 -86 537 -82 7 6 -84 23 -277 51 -344 51
-419 73 -484 145 -80 89 -70 179 40 359 36 59 74 136 85 172 22 67 38 239 23
239 -5 0 -9 -33 -10 -73z"/>
<path d="M3927 10610 c-3 -47 -9 -96 -13 -110 -5 -18 -4 -22 4 -15 14 13 32
163 22 190 -4 11 -9 -15 -13 -65z"/>
<path d="M3992 10655 c-1 -22 -5 -51 -8 -65 -5 -19 -4 -22 5 -14 8 7 11 32 8
65 -3 44 -4 47 -5 14z"/>
<path d="M4048 10670 c-4 -14 -8 -36 -8 -50 1 -22 2 -23 11 -7 6 9 9 32 7 50
-3 31 -3 31 -10 7z"/>
<path d="M4100 10663 c0 -36 -23 -123 -43 -162 -9 -17 -12 -31 -7 -31 15 0 50
99 57 160 3 33 3 60 -1 60 -3 0 -6 -12 -6 -27z"/>
<path d="M4155 10658 c-4 -18 -9 -42 -12 -53 -3 -13 -2 -17 5 -10 10 10 26 95
18 95 -2 0 -7 -15 -11 -32z"/>
<path d="M4202 10639 c-7 -30 -37 -97 -67 -149 -76 -135 -82 -186 -29 -250 41
-48 97 -71 243 -96 143 -25 157 -27 149 -19 -3 3 -66 16 -141 29 -148 26 -216
52 -246 95 -45 63 -37 112 38 240 47 78 78 166 69 192 -2 7 -10 -12 -16 -42z"/>
<path d="M4260 10674 c0 -8 5 -12 10 -9 6 3 10 10 10 16 0 5 -4 9 -10 9 -5 0
-10 -7 -10 -16z"/>
<path d="M4310 10664 c-6 -16 -13 -35 -15 -41 -2 -7 -20 -37 -38 -66 -19 -30
-38 -64 -42 -77 -12 -38 -7 -100 10 -126 31 -48 64 -61 253 -100 12 -2 22 0
22 5 0 4 -24 11 -52 15 -158 20 -228 66 -228 149 0 32 11 62 44 120 45 80 70
137 61 145 -2 3 -9 -8 -15 -24z"/>
<path d="M4337 10628 c-54 -98 -58 -108 -49 -108 5 0 17 19 28 43 10 23 21 44
25 47 11 9 41 72 36 76 -3 3 -20 -23 -40 -58z"/>
<path d="M4378 10621 c-21 -38 -38 -79 -37 -92 1 -23 1 -23 9 2 4 15 24 56 45
93 20 36 33 66 28 66 -4 0 -25 -31 -45 -69z"/>
<path d="M4457 10683 c-4 -3 -7 -11 -7 -17 0 -6 5 -5 12 2 6 6 9 14 7 17 -3 3
-9 2 -12 -2z"/>
<path d="M3650 10665 c0 -11 5 -27 10 -35 8 -12 10 -12 10 5 0 11 -5 27 -10
35 -8 12 -10 12 -10 -5z"/>
<path d="M4480 10643 c-9 -28 -9 -46 0 -67 6 -16 13 -26 16 -23 3 3 0 15 -6
27 -8 16 -8 30 0 56 7 20 10 38 7 41 -3 3 -11 -12 -17 -34z"/>
<path d="M3340 10658 c0 -9 5 -20 10 -23 13 -8 13 5 0 25 -8 13 -10 13 -10 -2z"/>
<path d="M3150 10651 c0 -5 5 -13 10 -16 6 -3 10 -2 10 4 0 5 -4 13 -10 16 -5
3 -10 2 -10 -4z"/>
<path d="M3185 10640 c4 -14 12 -29 17 -35 7 -7 8 -2 3 15 -4 14 -12 30 -17
35 -7 7 -8 2 -3 -15z"/>
<path d="M3491 10645 c0 -11 4 -29 9 -40 8 -18 9 -18 9 5 0 14 -4 32 -9 40 -8
12 -10 12 -9 -5z"/>
<path d="M2870 10614 c-19 -19 -54 -44 -77 -56 -24 -13 -43 -27 -43 -31 0 -15
97 44 131 79 43 44 34 51 -11 8z"/>
<path d="M3411 10635 c1 -11 5 -31 9 -45 8 -24 8 -24 9 5 0 17 -4 37 -9 45 -8
12 -10 11 -9 -5z"/>
<path d="M3823 10605 c0 -27 2 -38 4 -22 2 15 2 37 0 50 -2 12 -4 0 -4 -28z"/>
<path d="M4247 10628 c-6 -21 -2 -36 7 -27 10 11 16 49 8 49 -5 0 -12 -10 -15
-22z"/>
<path d="M4422 10625 c-6 -14 -8 -25 -3 -25 4 0 13 11 19 25 6 14 8 25 3 25
-4 0 -13 -11 -19 -25z"/>
<path d="M3250 10633 c0 -4 5 -15 10 -23 8 -13 10 -13 10 2 0 9 -4 20 -10 23
-5 3 -10 3 -10 -2z"/>
<path d="M3732 10615 c0 -16 2 -22 5 -12 2 9 2 23 0 30 -3 6 -5 -1 -5 -18z"/>
<path d="M3582 10605 c0 -16 2 -22 5 -12 2 9 2 23 0 30 -3 6 -5 -1 -5 -18z"/>
<path d="M2299 10565 c14 -30 29 -55 33 -55 4 0 -4 25 -19 55 -35 72 -47 72
-14 0z"/>
<path d="M3070 10611 c0 -5 5 -13 10 -16 6 -3 10 -2 10 4 0 5 -4 13 -10 16 -5
3 -10 2 -10 -4z"/>
<path d="M3136 10595 c13 -54 24 -73 18 -30 -4 22 -11 45 -16 50 -6 6 -7 -1
-2 -20z"/>
<path d="M3163 10606 c4 -10 7 -24 7 -32 0 -8 4 -14 9 -14 11 0 1 49 -12 57
-7 4 -8 0 -4 -11z"/>
<path d="M2347 10543 c79 -150 142 -243 164 -243 5 0 -12 27 -39 59 -26 33
-69 102 -97 155 -27 53 -53 96 -57 96 -4 0 9 -30 29 -67z"/>
<path d="M3351 10605 c1 -19 18 -51 18 -35 0 8 -4 22 -9 30 -5 8 -9 11 -9 5z"/>
<path d="M3662 10559 c-1 -31 -5 -72 -8 -90 -4 -28 -3 -31 6 -17 6 11 9 48 7
90 -3 66 -3 68 -5 17z"/>
<path d="M2400 10597 c0 -34 97 -155 143 -178 34 -18 45 -19 88 -10 77 17 197
81 252 134 27 26 47 50 45 52 -2 3 -27 -17 -55 -44 -27 -26 -64 -54 -81 -62
-18 -8 -32 -17 -32 -21 0 -5 -3 -7 -7 -6 -5 1 -26 -6 -48 -16 -22 -11 -65 -21
-95 -23 -50 -5 -59 -2 -89 23 -18 15 -53 57 -77 93 -24 36 -44 62 -44 58z"/>
<path d="M3320 10595 c0 -5 5 -17 10 -25 5 -8 10 -10 10 -5 0 6 -5 17 -10 25
-5 8 -10 11 -10 5z"/>
<path d="M3622 10539 c-1 -37 -5 -82 -8 -100 -4 -27 -3 -31 6 -17 6 11 9 51 7
100 -3 80 -3 80 -5 17z"/>
<path d="M3260 10585 c0 -5 5 -17 10 -25 5 -8 10 -10 10 -5 0 6 -5 17 -10 25
-5 8 -10 11 -10 5z"/>
<path d="M3290 10581 c0 -5 5 -13 10 -16 6 -3 10 -2 10 4 0 5 -4 13 -10 16 -5
3 -10 2 -10 -4z"/>
<path d="M4037 10583 c-4 -3 -7 -11 -7 -17 0 -6 5 -5 12 2 6 6 9 14 7 17 -3 3
-9 2 -12 -2z"/>
<path d="M4224 10573 c-39 -62 -75 -133 -67 -133 4 0 21 26 38 58 16 31 35 63
42 70 15 15 16 22 5 22 -4 0 -12 -8 -18 -17z"/>
<path d="M4407 10570 c-3 -11 -1 -23 4 -26 5 -3 9 6 9 20 0 31 -6 34 -13 6z"/>
<path d="M3080 10570 c0 -5 5 -10 11 -10 5 0 7 5 4 10 -3 6 -8 10 -11 10 -2 0
-4 -4 -4 -10z"/>
<path d="M3200 10573 c0 -4 5 -15 10 -23 8 -13 10 -13 10 2 0 9 -4 20 -10 23
-5 3 -10 3 -10 -2z"/>
<path d="M3504 10547 c2 -21 7 -41 10 -44 9 -10 6 40 -5 62 -7 15 -8 11 -5
-18z"/>
<path d="M3727 10513 c-4 -39 -10 -79 -14 -89 -4 -11 -3 -15 5 -11 11 8 27
122 20 153 -2 10 -7 -13 -11 -53z"/>
<path d="M4127 10560 c-3 -11 -1 -20 4 -20 5 0 9 2 9 4 0 2 3 11 6 20 3 9 2
16 -4 16 -5 0 -12 -9 -15 -20z"/>
<path d="M3543 10526 c0 -25 4 -46 9 -46 11 0 10 61 -1 79 -6 9 -9 -2 -8 -33z"/>
<path d="M3583 10505 c0 -38 2 -53 4 -32 2 20 2 52 0 70 -2 17 -4 1 -4 -38z"/>
<path d="M3428 10508 c5 -89 9 -97 11 -20 0 39 -2 72 -6 72 -5 0 -7 -24 -5
-52z"/>
<path d="M3971 10529 c-13 -38 -13 -39 -2 -39 9 0 24 60 17 67 -2 2 -9 -10
-15 -28z"/>
<path d="M3331 10535 c0 -11 4 -29 9 -40 9 -20 9 -20 9 0 0 11 -4 29 -9 40 -9
20 -9 20 -9 0z"/>
<path d="M3366 10515 c8 -50 14 -58 14 -19 0 16 -5 36 -11 44 -7 11 -8 4 -3
-25z"/>
<path d="M3815 10526 c-3 -14 -7 -38 -10 -52 -4 -15 -2 -23 4 -20 11 7 26 85
17 93 -3 3 -7 -6 -11 -21z"/>
<path d="M4024 10534 c-11 -33 -57 -129 -65 -134 -4 -3 -23 -35 -44 -72 -38
-71 -58 -169 -36 -182 7 -5 9 2 5 23 -9 42 18 118 69 199 47 73 92 171 83 179
-3 3 -8 -3 -12 -13z"/>
<path d="M3090 10531 c0 -5 5 -13 10 -16 6 -3 10 -2 10 4 0 5 -4 13 -10 16 -5
3 -10 2 -10 -4z"/>
<path d="M3180 10530 c0 -8 5 -22 10 -30 9 -13 10 -13 10 0 0 8 -5 22 -10 30
-9 13 -10 13 -10 0z"/>
<path d="M3301 10525 c0 -11 4 -29 9 -40 8 -18 9 -18 9 5 0 14 -4 32 -9 40 -8
12 -10 12 -9 -5z"/>
<path d="M2713 10518 c-31 -15 -29 -30 2 -16 14 6 25 15 25 20 0 9 1 10 -27
-4z"/>
<path d="M3218 10479 c2 -30 8 -58 12 -62 9 -11 0 82 -10 102 -4 7 -5 -11 -2
-40z"/>
<path d="M3277 10493 c8 -50 13 -55 13 -10 0 20 -4 38 -9 42 -6 3 -7 -10 -4
-32z"/>
<path d="M4422 10508 c16 -25 66 -54 75 -44 3 3 -6 10 -20 15 -15 6 -32 19
-39 31 -7 11 -17 20 -22 20 -4 0 -2 -10 6 -22z"/>
<path d="M2924 10472 c-15 -28 -41 -57 -56 -67 -15 -9 -28 -21 -28 -26 0 -6
16 2 35 17 36 27 92 110 82 120 -3 3 -18 -17 -33 -44z"/>
<path d="M3155 10510 c3 -5 8 -10 11 -10 2 0 4 5 4 10 0 6 -5 10 -11 10 -5 0
-7 -4 -4 -10z"/>
<path d="M4277 10503 c-4 -3 -7 -11 -7 -17 0 -6 5 -5 12 2 6 6 9 14 7 17 -3 3
-9 2 -12 -2z"/>
<path d="M2643 10489 c-18 -5 -33 -12 -33 -15 0 -9 53 5 65 17 10 10 11 10
-32 -2z"/>
<path d="M3101 10490 c0 -8 4 -22 9 -30 12 -18 12 -2 0 25 -6 13 -9 15 -9 5z"/>
<path d="M3401 10484 c0 -11 3 -14 6 -6 3 7 2 16 -1 19 -3 4 -6 -2 -5 -13z"/>
<path d="M3161 10474 c0 -11 3 -14 6 -6 3 7 2 16 -1 19 -3 4 -6 -2 -5 -13z"/>
<path d="M3511 10480 c-11 -83 -11 -95 0 -70 5 13 8 38 6 55 -2 16 -5 23 -6
15z"/>
<path d="M4063 10443 c-26 -44 -53 -100 -53 -109 0 -2 4 -4 10 -4 5 0 12 16
16 35 3 19 9 35 13 35 3 0 15 17 26 38 11 20 24 40 30 44 6 5 6 8 -2 8 -6 0
-24 -21 -40 -47z"/>
<path d="M4346 10475 c4 -8 11 -15 16 -15 6 0 5 6 -2 15 -7 8 -14 15 -16 15
-2 0 -1 -7 2 -15z"/>
<path d="M3950 10467 c0 -11 -18 -43 -97 -169 -2 -5 0 -8 5 -8 4 0 28 35 53
77 52 91 62 113 49 113 -6 0 -10 -6 -10 -13z"/>
<path d="M2351 10388 c48 -95 89 -162 95 -155 2 2 -11 30 -31 62 -19 32 -47
84 -61 116 -15 33 -31 59 -36 59 -4 0 10 -37 33 -82z"/>
<path d="M3191 10460 c0 -8 4 -24 9 -35 5 -13 9 -14 9 -5 0 8 -4 24 -9 35 -5
13 -9 14 -9 5z"/>
<path d="M3343 10435 c0 -22 2 -30 4 -17 2 12 2 30 0 40 -3 9 -5 -1 -4 -23z"/>
<path d="M3542 10450 c0 -14 2 -19 5 -12 2 6 2 18 0 25 -3 6 -5 1 -5 -13z"/>
<path d="M4275 10445 c8 -40 64 -91 115 -105 59 -16 61 -5 3 14 -62 21 -79 35
-104 82 -19 36 -20 37 -14 9z"/>
<path d="M2940 10427 c-7 -18 -16 -36 -18 -42 -3 -5 2 -4 10 3 15 12 33 60 26
68 -2 2 -10 -11 -18 -29z"/>
<path d="M3312 10403 c-1 -34 -5 -70 -8 -80 -5 -14 -4 -15 5 -7 8 7 11 35 8
80 l-3 69 -2 -62z"/>
<path d="M3373 10425 c0 -22 2 -30 4 -17 2 12 2 30 0 40 -3 9 -5 -1 -4 -23z"/>
<path d="M3402 10440 c0 -14 2 -19 5 -12 2 6 2 18 0 25 -3 6 -5 1 -5 -13z"/>
<path d="M3687 10454 c-4 -4 -7 -14 -7 -23 0 -11 3 -12 11 -4 6 6 10 16 7 23
-2 6 -7 8 -11 4z"/>
<path d="M3747 10446 c-4 -10 -5 -21 -2 -24 9 -9 17 6 13 25 -3 17 -4 17 -11
-1z"/>
<path d="M4022 10440 c-7 -11 -9 -20 -4 -20 4 0 13 9 20 20 7 11 9 20 4 20 -4
0 -13 -9 -20 -20z"/>
<path d="M3165 10440 c3 -5 8 -10 11 -10 2 0 4 5 4 10 0 6 -5 10 -11 10 -5 0
-7 -4 -4 -10z"/>
<path d="M3890 10430 c-6 -11 -7 -20 -2 -20 6 0 12 9 15 20 3 11 3 20 1 20 -2
0 -8 -9 -14 -20z"/>
<path d="M4380 10430 c14 -10 27 -16 30 -13 6 6 -30 33 -44 33 -6 0 0 -9 14
-20z"/>
<path d="M2375 10409 c9 -17 19 -29 21 -26 7 7 -18 57 -28 57 -5 0 -1 -14 7
-31z"/>
<path d="M3282 10415 c0 -16 2 -22 5 -12 2 9 2 23 0 30 -3 6 -5 -1 -5 -18z"/>
<path d="M3790 10430 c0 -5 5 -10 10 -10 6 0 10 5 10 10 0 6 -4 10 -10 10 -5
0 -10 -4 -10 -10z"/>
<path d="M3112 10410 c0 -14 2 -19 5 -12 2 6 2 18 0 25 -3 6 -5 1 -5 -13z"/>
<path d="M3570 10413 c0 -10 -3 -29 -6 -43 -5 -17 -3 -22 3 -15 15 14 25 75
13 75 -6 0 -10 -8 -10 -17z"/>
<path d="M3647 10423 c-4 -3 -7 -11 -7 -17 0 -6 5 -5 12 2 6 6 9 14 7 17 -3 3
-9 2 -12 -2z"/>
<path d="M4140 10414 c0 -8 5 -12 10 -9 6 3 10 10 10 16 0 5 -4 9 -10 9 -5 0
-10 -7 -10 -16z"/>
<path d="M3173 10385 c0 -22 2 -30 4 -17 2 12 2 30 0 40 -3 9 -5 -1 -4 -23z"/>
<path d="M4425 10410 c3 -5 8 -10 11 -10 2 0 4 5 4 10 0 6 -5 10 -11 10 -5 0
-7 -4 -4 -10z"/>
<path d="M3402 10388 c-1 -14 -5 -35 -8 -45 -5 -14 -4 -15 5 -7 7 7 11 26 8
45 -3 28 -4 29 -5 7z"/>
<path d="M3424 10356 c-5 -31 -7 -56 -3 -56 9 0 23 83 17 100 -2 6 -8 -14 -14
-44z"/>
<path d="M3674 10394 c-4 -10 -15 -39 -25 -63 -29 -68 -16 -59 15 10 15 33 25
63 22 66 -3 3 -8 -3 -12 -13z"/>
<path d="M3737 10403 c-4 -3 -7 -11 -7 -17 0 -6 5 -5 12 2 6 6 9 14 7 17 -3 3
-9 2 -12 -2z"/>
<path d="M3780 10399 c0 -5 5 -7 10 -4 6 3 10 8 10 11 0 2 -4 4 -10 4 -5 0
-10 -5 -10 -11z"/>
<path d="M3981 10376 c-25 -39 -27 -53 -6 -36 8 7 12 16 9 21 -3 5 -1 9 4 9 5
0 12 9 15 20 7 28 2 25 -22 -14z"/>
<path d="M4455 10400 c3 -5 16 -10 28 -9 21 0 21 1 2 9 -28 12 -37 12 -30 0z"/>
<path d="M3535 10385 c-3 -8 -7 -22 -10 -30 -2 -8 -1 -15 4 -15 5 0 11 14 13
30 5 32 1 40 -7 15z"/>
<path d="M3604 10384 c-4 -10 -9 -22 -11 -26 -2 -5 0 -8 5 -8 10 0 24 41 17
48 -3 3 -8 -4 -11 -14z"/>
<path d="M3700 10389 c0 -5 5 -7 10 -4 6 3 10 8 10 11 0 2 -4 4 -10 4 -5 0
-10 -5 -10 -11z"/>
<path d="M3864 10383 c-4 -10 -6 -21 -6 -25 1 -5 -2 -8 -6 -8 -10 0 -46 -60
-39 -66 2 -2 15 13 29 33 37 57 50 83 39 83 -5 0 -12 -8 -17 -17z"/>
<path d="M3631 10366 c-6 -14 -18 -40 -26 -56 -9 -17 -11 -30 -6 -30 10 0 55
100 47 107 -3 3 -10 -6 -15 -21z"/>
<path d="M2775 10349 c-81 -46 -178 -73 -215 -61 -17 6 -30 7 -30 2 0 -16 66
-22 111 -10 62 17 189 77 189 89 0 6 -1 11 -2 10 -2 -1 -25 -14 -53 -30z"/>
<path d="M2946 10354 c-32 -48 -91 -95 -167 -133 -42 -21 -82 -41 -90 -43 -8
-3 -12 -8 -9 -11 3 -3 42 12 87 33 84 39 164 104 189 152 18 35 12 36 -10 2z"/>
<path d="M3282 10360 c0 -14 2 -19 5 -12 2 6 2 18 0 25 -3 6 -5 1 -5 -13z"/>
<path d="M3366 10354 c-4 -14 -5 -29 -2 -31 3 -3 8 7 12 21 3 15 4 29 1 32 -2
3 -8 -7 -11 -22z"/>
<path d="M3496 10371 c-4 -7 -5 -15 -2 -18 9 -9 19 4 14 18 -4 11 -6 11 -12 0z"/>
<path d="M3757 10345 c-9 -19 -13 -35 -9 -35 5 0 16 16 25 35 9 19 13 35 9 35
-5 0 -16 -16 -25 -35z"/>
<path d="M2900 10359 c0 -5 -4 -7 -10 -4 -5 3 -10 2 -10 -2 0 -5 -18 -19 -40
-33 -22 -14 -40 -28 -40 -32 0 -4 15 1 33 12 47 29 94 69 80 70 -7 0 -13 -5
-13 -11z"/>
<path d="M3220 10348 c0 -19 2 -20 10 -8 13 19 13 30 0 30 -5 0 -10 -10 -10
-22z"/>
<path d="M3673 10322 c-27 -57 -55 -105 -68 -114 -5 -4 3 -6 19 -5 25 2 35 12
65 66 19 36 29 61 23 57 -7 -4 -22 -25 -33 -48 -11 -22 -23 -38 -25 -35 -3 3
9 32 25 66 17 34 28 61 24 61 -5 0 -18 -22 -30 -48z m-27 -109 c-10 -10 -19 5
-10 18 6 11 8 11 12 0 2 -7 1 -15 -2 -18z"/>
<path d="M3716 10355 c-3 -8 -1 -15 3 -15 5 0 11 7 15 15 3 8 1 15 -3 15 -5 0
-11 -7 -15 -15z"/>
<path d="M4140 10357 c0 -29 26 -70 59 -95 17 -12 31 -18 31 -13 0 5 -12 16
-26 26 -14 9 -34 35 -45 58 -10 23 -19 34 -19 24z"/>
<path d="M3196 10345 c-9 -26 -7 -32 5 -12 6 10 9 21 6 23 -2 3 -7 -2 -11 -11z"/>
<path d="M2439 10307 c26 -39 90 -97 105 -97 3 0 6 5 6 12 0 6 -3 8 -7 4 -7
-7 -113 100 -113 115 0 5 -5 9 -10 9 -6 0 2 -19 19 -43z"/>
<path d="M3337 10343 c-4 -3 -7 -11 -7 -17 0 -6 5 -5 12 2 6 6 9 14 7 17 -3 3
-9 2 -12 -2z"/>
<path d="M3166 10323 c-6 -14 -5 -15 5 -6 7 7 10 15 7 18 -3 3 -9 -2 -12 -12z"/>
<path d="M3485 10330 c-3 -5 -1 -10 4 -10 6 0 11 5 11 10 0 6 -2 10 -4 10 -3
0 -8 -4 -11 -10z"/>
<path d="M3580 10328 c0 -8 -7 -23 -16 -34 -15 -19 -15 -18 -11 4 3 12 1 22
-4 22 -5 0 -9 -7 -9 -15 0 -9 -10 -26 -21 -38 -17 -17 -21 -18 -16 -4 4 9 2
17 -3 17 -6 0 -10 -6 -10 -14 0 -8 -3 -16 -7 -19 -5 -2 -2 -2 5 -1 6 2 12 -2
12 -9 1 -7 12 2 25 18 30 36 34 19 5 -18 -12 -14 -27 -24 -34 -21 -8 3 -17 1
-21 -5 -4 -8 -12 -8 -25 -1 -16 8 -18 6 -16 -15 2 -15 -5 -31 -18 -42 l-21
-18 19 23 c11 13 14 22 7 22 -6 0 -14 -7 -18 -16 -3 -8 -11 -13 -18 -10 -8 3
-12 -4 -10 -17 1 -12 -10 -37 -23 -56 -14 -18 -19 -32 -12 -29 8 2 18 12 24
23 6 10 28 34 49 53 21 19 36 41 33 48 -3 7 0 16 6 20 7 4 8 3 4 -4 -4 -7 -2
-12 4 -12 7 0 9 -7 6 -16 -3 -9 -2 -12 4 -9 6 4 10 12 9 18 -3 23 1 37 11 37
5 0 7 -8 3 -17 -6 -16 -4 -16 15 1 12 11 22 15 22 9 0 -5 -8 -17 -18 -26 -26
-24 -85 -107 -75 -106 4 0 28 27 53 60 25 32 57 73 73 91 15 17 27 36 27 42 0
6 -13 -5 -30 -24 -35 -42 -40 -32 -6 13 36 49 48 75 36 82 -5 3 -10 0 -10 -7z
m-180 -192 c0 -3 -4 -8 -10 -11 -5 -3 -10 -1 -10 4 0 6 5 11 10 11 6 0 10 -2
10 -4z"/>
<path d="M4455 10330 c3 -5 16 -10 28 -9 21 0 21 1 2 9 -28 12 -37 12 -30 0z"/>
<path d="M3107 10311 c-4 -17 -3 -21 5 -13 5 5 8 16 6 23 -3 8 -7 3 -11 -10z"/>
<path d="M3275 10319 c-4 -6 -5 -12 -2 -15 2 -3 7 2 10 11 7 17 1 20 -8 4z"/>
<path d="M3217 10313 c-4 -3 -7 -11 -7 -17 0 -6 5 -5 12 2 6 6 9 14 7 17 -3 3
-9 2 -12 -2z"/>
<path d="M3385 10310 c-3 -5 -1 -10 4 -10 6 0 11 5 11 10 0 6 -2 10 -4 10 -3
0 -8 -4 -11 -10z"/>
<path d="M4006 10299 c-5 -17 -2 -39 7 -62 18 -42 66 -99 78 -91 5 3 9 1 9 -5
0 -15 85 -39 220 -61 69 -11 137 -22 153 -25 15 -2 27 -1 27 3 0 4 -64 17
-142 29 -186 29 -236 44 -289 91 -38 35 -44 45 -49 93 -5 46 -7 50 -14 28z"/>
<path d="M3327 10303 c-4 -3 -7 -11 -7 -17 0 -6 5 -5 12 2 6 6 9 14 7 17 -3 3
-9 2 -12 -2z"/>
<path d="M3355 10300 c-3 -5 -1 -10 4 -10 6 0 11 5 11 10 0 6 -2 10 -4 10 -3
0 -8 -4 -11 -10z"/>
<path d="M3183 10283 c-3 -10 -8 -22 -11 -27 -3 -5 0 -6 5 -3 11 7 25 47 17
47 -3 0 -7 -8 -11 -17z"/>
<path d="M3722 10280 c-7 -11 -9 -20 -4 -20 4 0 13 9 20 20 7 11 9 20 4 20 -4
0 -13 -9 -20 -20z"/>
<path d="M3947 10293 c-4 -3 -7 -11 -7 -17 0 -6 5 -5 12 2 6 6 9 14 7 17 -3 3
-9 2 -12 -2z"/>
<path d="M2738 10267 c-63 -29 -61 -41 2 -15 28 11 50 25 50 29 0 5 -1 9 -2 8
-2 0 -24 -11 -50 -22z"/>
<path d="M3252 10258 c-16 -44 -9 -45 11 -3 9 19 13 35 9 35 -4 0 -13 -14 -20
-32z"/>
<path d="M3390 10250 c-11 -22 -18 -40 -15 -40 2 0 14 18 25 40 11 22 18 40
15 40 -2 0 -14 -18 -25 -40z"/>
<path d="M3340 10260 c-6 -12 -17 -17 -28 -14 -13 5 -14 4 -3 -4 21 -15 4 -34
-19 -22 -24 13 -30 13 -30 -1 0 -5 5 -7 10 -4 14 9 12 -8 -2 -25 -7 -8 -3 -7
8 3 18 15 22 15 27 4 3 -8 0 -20 -6 -26 -8 -8 -8 -11 0 -11 6 0 14 7 17 16 4
10 12 14 23 10 10 -4 14 -4 11 0 -4 4 4 26 18 50 14 24 22 44 16 44 -5 0 -15
-13 -22 -29 -6 -16 -21 -38 -32 -48 -17 -15 -16 -10 6 30 15 26 24 47 22 47
-3 0 -10 -9 -16 -20z"/>
<path d="M3460 10269 c0 -5 5 -7 10 -4 6 3 10 8 10 11 0 2 -4 4 -10 4 -5 0
-10 -5 -10 -11z"/>
<path d="M3835 10270 c-3 -5 -1 -10 4 -10 6 0 11 5 11 10 0 6 -2 10 -4 10 -3
0 -8 -4 -11 -10z"/>
<path d="M3090 10259 c0 -5 5 -7 10 -4 6 3 10 8 10 11 0 2 -4 4 -10 4 -5 0
-10 -5 -10 -11z"/>
<path d="M3276 10255 c-3 -8 -1 -15 3 -15 5 0 11 7 15 15 3 8 1 15 -3 15 -5 0
-11 -7 -15 -15z"/>
<path d="M3580 10219 c-19 -27 -45 -62 -58 -77 -41 -48 -76 -133 -80 -191 -3
-47 1 -65 25 -110 29 -56 90 -108 152 -129 46 -16 37 -4 -13 18 -24 11 -49 27
-56 35 -7 8 -18 15 -24 15 -15 0 -50 55 -66 104 -7 22 -10 57 -6 82 9 68 32
109 154 272 13 17 20 32 16 32 -5 0 -25 -23 -44 -51z"/>
<path d="M3790 10256 c0 -7 -7 -19 -15 -26 -16 -13 -20 -30 -7 -30 11 1 43 70
32 70 -6 0 -10 -6 -10 -14z"/>
<path d="M3672 10202 c-17 -26 -38 -67 -47 -91 -17 -50 -17 -51 -7 -51 4 0 15
27 26 60 10 33 21 60 25 60 8 0 43 61 38 67 -3 2 -18 -18 -35 -45z"/>
<path d="M3822 10233 c-30 -57 -21 -149 19 -195 l20 -23 -21 42 c-22 46 -26
115 -10 159 12 31 6 44 -8 17z"/>
<path d="M3941 10234 c0 -11 3 -14 6 -6 3 7 2 16 -1 19 -3 4 -6 -2 -5 -13z"/>
<path d="M4243 10243 c6 -10 41 -19 137 -39 16 -4 21 -2 15 4 -5 5 -35 14 -65
20 -30 6 -64 14 -74 18 -13 5 -17 4 -13 -3z"/>
<path d="M2667 10234 c-3 -3 -30 -10 -59 -14 l-53 -9 57 3 c55 2 78 10 66 21
-2 3 -7 2 -11 -1z"/>
<path d="M2470 10195 c13 -14 29 -25 36 -25 7 0 14 -6 17 -12 5 -18 122 -17
139 0 11 11 8 12 -17 5 -59 -16 -102 -9 -144 25 -48 38 -64 42 -31 7z"/>
<path d="M3226 10202 c-2 -4 -1 -14 3 -21 6 -10 10 -9 14 3 6 16 -8 32 -17 18z"/>
<path d="M3946 10190 c12 -49 65 -105 117 -123 29 -11 19 10 -12 23 -33 13
-71 52 -95 95 -15 26 -16 27 -10 5z"/>
<path d="M4412 10205 c11 -11 88 -24 88 -14 0 5 -6 9 -14 9 -7 0 -29 3 -47 6
-19 4 -31 3 -27 -1z"/>
<path d="M3570 10160 c-12 -16 -18 -30 -13 -30 4 0 16 14 25 30 22 39 15 39
-12 0z"/>
<path d="M3615 10180 c-3 -5 -2 -10 4 -10 5 0 13 5 16 10 3 6 2 10 -4 10 -5 0
-13 -4 -16 -10z"/>
<path d="M3747 10164 c-4 -4 -7 -17 -7 -28 1 -19 1 -20 11 -3 11 19 8 43 -4
31z"/>
<path d="M3235 10140 c-3 -5 -1 -10 4 -10 6 0 11 5 11 10 0 6 -2 10 -4 10 -3
0 -8 -4 -11 -10z"/>
<path d="M3420 10114 c-13 -13 -20 -24 -14 -24 12 0 50 38 43 44 -2 2 -15 -7
-29 -20z"/>
<path d="M3575 10110 c-9 -16 -13 -30 -9 -30 4 0 1 -7 -6 -15 -7 -9 -10 -18
-7 -21 3 -3 16 17 30 45 25 54 19 72 -8 21z"/>
<path d="M3886 10118 c27 -48 52 -72 96 -94 27 -14 52 -23 55 -20 3 3 -10 11
-28 19 -44 18 -96 62 -104 87 -4 11 -11 20 -16 20 -6 0 -7 -6 -3 -12z"/>
<path d="M3212 10111 c2 -5 -6 -17 -17 -25 -11 -8 -15 -16 -9 -16 18 0 47 37
34 45 -6 3 -9 2 -8 -4z"/>
<path d="M3315 10078 c-24 -25 -32 -37 -18 -30 18 10 71 72 61 72 -2 0 -21
-19 -43 -42z"/>
<path d="M3527 10085 c-9 -19 -13 -35 -9 -35 5 0 16 16 25 35 9 19 13 35 9 35
-5 0 -16 -16 -25 -35z"/>
<path d="M3744 10067 c3 -36 12 -58 33 -85 33 -41 93 -86 102 -76 3 4 0 9 -8
12 -8 3 -34 23 -57 44 -40 37 -56 66 -68 128 -3 14 -3 3 -2 -23z"/>
<path d="M3385 10070 c-3 -5 -2 -10 4 -10 5 0 13 5 16 10 3 6 2 10 -4 10 -5 0
-13 -4 -16 -10z"/>
<path d="M2960 10039 c-66 -36 -135 -101 -161 -151 -30 -58 -26 -134 10 -190
32 -51 66 -78 143 -113 57 -26 199 -65 233 -64 11 0 -20 10 -70 23 -275 68
-384 198 -295 352 33 58 70 93 147 136 29 16 53 32 53 34 0 6 -2 6 -60 -27z"/>
<path d="M4095 10062 c12 -12 174 -46 182 -38 6 5 -4 8 -102 27 -33 6 -66 14
-75 17 -10 3 -12 2 -5 -6z"/>
<path d="M3066 10045 c-10 -8 -23 -12 -28 -9 -5 3 -7 1 -6 -4 2 -5 -16 -28
-40 -52 -23 -24 -40 -46 -37 -49 4 -3 22 13 41 37 42 49 68 57 32 10 -33 -43
-51 -78 -41 -78 5 0 17 17 28 37 11 20 34 50 50 66 17 17 22 24 12 17 -9 -7
-21 -10 -24 -6 -7 7 9 21 32 29 6 3 8 7 5 10 -3 3 -14 -1 -24 -8z"/>
<path d="M3106 10013 c-51 -50 -96 -131 -96 -172 0 -53 25 -107 73 -155 26
-26 51 -46 53 -43 3 3 -15 24 -40 47 -55 51 -80 116 -67 172 13 55 55 121 103
162 23 20 37 36 32 36 -6 0 -32 -21 -58 -47z"/>
<path d="M3151 10020 c-36 -37 -75 -90 -65 -90 3 0 2 -6 -4 -13 -19 -22 -25
-93 -12 -133 14 -40 84 -124 105 -124 8 0 16 -6 18 -12 4 -9 6 -9 6 -1 1 6
-15 21 -34 33 -36 23 -78 84 -89 133 -4 15 -2 44 3 65 6 20 12 42 13 47 3 11
18 31 67 87 40 45 35 51 -8 8z"/>
<path d="M3362 10025 c-6 -14 -8 -25 -3 -25 4 0 13 11 19 25 6 14 8 25 3 25
-4 0 -13 -11 -19 -25z"/>
<path d="M3605 10029 c-13 -39 21 -149 45 -149 5 0 0 16 -11 35 -14 23 -21 52
-21 85 1 54 -3 62 -13 29z"/>
<path d="M3230 10025 c-7 -9 -10 -18 -7 -21 3 -3 10 4 17 15 13 25 8 27 -10 6z"/>
<path d="M3320 10025 c0 -8 -5 -15 -12 -15 -6 0 -8 -3 -5 -7 4 -3 2 -12 -4
-20 -6 -7 -7 -13 -2 -13 5 0 17 16 26 35 9 19 12 35 7 35 -6 0 -10 -7 -10 -15z"/>
<path d="M2983 10014 c0 -7 6 -10 14 -7 7 3 13 8 13 12 0 4 -6 8 -13 8 -8 0
-14 -6 -14 -13z"/>
<path d="M3265 10020 c-3 -5 -1 -10 4 -10 6 0 11 5 11 10 0 6 -2 10 -4 10 -3
0 -8 -4 -11 -10z"/>
<path d="M3547 10023 c-4 -3 -7 -13 -7 -22 1 -13 3 -13 11 2 11 19 8 33 -4 20z"/>
<path d="M4293 10024 c10 -10 207 -40 207 -32 0 4 -3 8 -7 8 -5 0 -48 7 -98
15 -102 17 -111 17 -102 9z"/>
<path d="M3405 10010 c-3 -5 -1 -10 4 -10 6 0 11 5 11 10 0 6 -2 10 -4 10 -3
0 -8 -4 -11 -10z"/>
<path d="M3497 10003 c-9 -9 -9 -101 1 -106 4 -3 7 21 7 54 0 32 0 59 -1 59 0
0 -4 -3 -7 -7z"/>
<path d="M3892 9985 c40 -27 88 -48 95 -41 4 4 -114 66 -126 66 -3 0 11 -11
31 -25z"/>
<path d="M4050 10000 c0 -5 5 -10 11 -10 5 0 7 5 4 10 -3 6 -8 10 -11 10 -2 0
-4 -4 -4 -10z"/>
<path d="M3246 9985 c-3 -8 -1 -15 3 -15 5 0 11 7 15 15 3 8 1 15 -3 15 -5 0
-11 -7 -15 -15z"/>
<path d="M4080 9996 c0 -6 53 -20 113 -31 23 -4 37 -2 33 3 -3 5 -26 12 -51
15 -25 4 -56 9 -70 13 -14 3 -25 4 -25 0z"/>
<path d="M2785 9982 c3 -3 -3 -15 -12 -26 -18 -20 -18 -20 6 -5 30 19 37 36
16 36 -8 0 -13 -3 -10 -5z"/>
<path d="M2819 9963 l-24 -28 30 25 c17 14 32 26 34 28 2 1 0 2 -6 2 -5 0 -20
-12 -34 -27z"/>
<path d="M3185 9946 c-10 -25 -16 -49 -14 -54 2 -6 14 14 25 44 12 30 18 54
14 54 -5 0 -16 -20 -25 -44z"/>
<path d="M3340 9974 c0 -8 5 -12 10 -9 6 3 10 10 10 16 0 5 -4 9 -10 9 -5 0
-10 -7 -10 -16z"/>
<path d="M3390 9980 c0 -5 5 -10 10 -10 6 0 10 5 10 10 0 6 -4 10 -10 10 -5 0
-10 -4 -10 -10z"/>
<path d="M2917 9939 c-16 -21 -25 -39 -20 -39 9 0 56 70 51 75 -2 2 -16 -14
-31 -36z"/>
<path d="M3542 9960 c0 -14 2 -19 5 -12 2 6 2 18 0 25 -3 6 -5 1 -5 -13z"/>
<path d="M2735 9960 c-3 -5 -1 -10 4 -10 6 0 11 5 11 10 0 6 -2 10 -4 10 -3 0
-8 -4 -11 -10z"/>
<path d="M4255 9961 c30 -12 121 -23 110 -12 -6 5 -37 11 -70 15 -36 3 -52 2
-40 -3z"/>
<path d="M2857 9914 c-28 -47 -46 -127 -31 -137 5 -3 10 14 11 38 1 41 15 74
49 123 9 12 12 22 8 22 -5 0 -22 -21 -37 -46z"/>
<path d="M3237 9953 c-6 -9 -10 -71 -7 -93 2 -8 6 10 10 40 7 55 6 68 -3 53z"/>
<path d="M3287 9953 c-4 -3 -7 -20 -6 -37 l1 -31 8 35 c9 36 8 45 -3 33z"/>
<path d="M3335 9903 c9 -64 37 -115 82 -152 50 -42 54 -31 5 13 -49 44 -74 96
-74 147 1 22 -4 39 -10 39 -7 0 -8 -16 -3 -47z"/>
<path d="M4000 9942 c0 -5 33 -14 73 -21 39 -7 86 -15 102 -18 17 -3 27 -2 24
1 -3 4 -42 13 -85 21 -43 9 -87 18 -96 21 -10 3 -18 1 -18 -4z"/>
<path d="M4390 9941 c8 -4 38 -11 65 -15 31 -4 44 -3 35 3 -8 4 -37 11 -65 15
-31 4 -44 3 -35 -3z"/>
<path d="M2692 9916 c-44 -52 -71 -137 -52 -166 7 -11 10 0 10 36 0 43 6 61
35 103 38 55 41 65 7 27z"/>
<path d="M3392 9920 c0 -14 2 -19 5 -12 2 6 2 18 0 25 -3 6 -5 1 -5 -13z"/>
<path d="M2738 9919 c-10 -5 -18 -17 -18 -24 0 -8 -4 -15 -9 -15 -5 0 -12 -7
-15 -16 -12 -32 1 -23 32 21 17 25 31 45 29 45 -1 0 -10 -5 -19 -11z"/>
<path d="M2772 9917 c-17 -20 -42 -84 -42 -104 1 -10 9 4 20 30 10 27 24 55
31 63 6 8 10 17 7 19 -3 3 -10 -1 -16 -8z"/>
<path d="M2577 9878 c-15 -23 -25 -44 -22 -46 3 -3 6 -3 8 -1 29 42 55 89 49
89 -4 0 -20 -19 -35 -42z"/>
<path d="M2936 9905 c-3 -8 -1 -15 3 -15 5 0 11 7 15 15 3 8 1 15 -3 15 -5 0
-11 -7 -15 -15z"/>
<path d="M3545 9899 c13 -40 32 -73 55 -94 17 -15 15 -9 -9 26 -17 26 -31 54
-31 62 0 9 -5 19 -11 23 -8 4 -9 -1 -4 -17z"/>
<path d="M3890 9900 c0 -4 18 -12 40 -18 22 -5 40 -7 40 -3 0 4 -18 12 -40 18
-22 5 -40 7 -40 3z"/>
<path d="M4220 9900 c19 -13 30 -13 30 0 0 6 -10 10 -22 10 -19 0 -20 -2 -8
-10z"/>
<path d="M4275 9890 c11 -5 29 -9 40 -9 17 -1 17 1 5 9 -8 5 -26 9 -40 9 -23
0 -23 -1 -5 -9z"/>
<path d="M2876 9868 c-10 -39 -7 -87 9 -126 19 -46 88 -111 143 -136 23 -10
39 -23 36 -27 -3 -5 2 -6 10 -3 9 3 16 8 16 9 0 2 -27 18 -60 36 -110 59 -164
144 -142 228 5 23 6 41 2 41 -4 0 -10 -10 -14 -22z"/>
<path d="M2970 9879 c0 -5 5 -7 10 -4 6 3 10 8 10 11 0 2 -4 4 -10 4 -5 0 -10
-5 -10 -11z"/>
<path d="M3390 9880 c0 -5 5 -10 11 -10 5 0 7 5 4 10 -3 6 -8 10 -11 10 -2 0
-4 -4 -4 -10z"/>
<path d="M4350 9881 c21 -12 119 -24 100 -13 -8 5 -37 12 -65 15 -29 4 -44 3
-35 -2z"/>
<path d="M2927 9873 c-14 -14 -6 -99 13 -139 20 -41 60 -86 60 -67 0 5 -9 18
-20 28 -29 26 -53 98 -48 144 2 23 3 41 2 41 0 0 -4 -3 -7 -7z"/>
<path d="M3286 9860 c16 -59 79 -140 109 -140 5 0 -7 15 -28 33 -21 17 -49 55
-63 82 -14 28 -22 39 -18 25z"/>
<path d="M3501 9874 c-1 -13 49 -83 72 -103 26 -21 20 -2 -10 33 -16 17 -36
43 -45 56 -9 14 -17 20 -17 14z"/>
<path d="M3990 9870 c20 -13 43 -13 35 0 -3 6 -16 10 -28 10 -18 0 -19 -2 -7
-10z"/>
<path d="M3171 9852 c-1 -28 31 -93 55 -113 15 -11 14 -7 -4 22 -12 20 -29 54
-36 75 -11 29 -15 33 -15 16z"/>
<path d="M3665 9850 c10 -11 20 -18 23 -15 7 6 -18 35 -31 35 -5 0 -2 -9 8
-20z"/>
<path d="M4050 9861 c8 -4 35 -11 60 -15 27 -3 39 -3 30 3 -8 4 -35 11 -60 15
-27 3 -39 3 -30 -3z"/>
<path d="M4475 9860 c3 -5 10 -10 16 -10 5 0 9 5 9 10 0 6 -7 10 -16 10 -8 0
-12 -4 -9 -10z"/>
<path d="M2970 9850 c-9 -60 15 -123 64 -168 42 -38 86 -67 86 -56 0 5 -19 20
-42 34 -53 33 -88 87 -98 152 -4 29 -9 46 -10 38z"/>
<path d="M3406 9845 c10 -26 56 -87 61 -81 3 3 -8 22 -23 43 -40 55 -46 61
-38 38z"/>
<path d="M4170 9840 c20 -13 43 -13 35 0 -3 6 -16 10 -28 10 -18 0 -19 -2 -7
-10z"/>
<path d="M3230 9830 c0 -5 5 -10 10 -10 6 0 10 5 10 10 0 6 -4 10 -10 10 -5 0
-10 -4 -10 -10z"/>
<path d="M4235 9830 c11 -5 29 -9 40 -9 20 0 20 0 0 9 -11 5 -29 9 -40 9 -20
0 -20 0 0 -9z"/>
<path d="M2680 9790 c0 -22 4 -40 8 -40 4 0 8 18 7 40 0 22 -3 40 -7 40 -5 0
-8 -18 -8 -40z"/>
<path d="M3720 9810 c14 -11 54 -29 89 -40 74 -23 71 -23 71 -10 0 6 -8 10
-19 10 -10 0 -35 7 -55 15 -20 8 -36 13 -36 9 0 -3 -12 4 -26 15 -15 12 -32
21 -38 21 -6 0 0 -9 14 -20z"/>
<path d="M4303 9823 c4 -6 32 -13 64 -17 31 -4 68 -9 82 -13 15 -4 22 -2 18 4
-4 6 -33 14 -64 18 -32 3 -69 9 -82 12 -15 4 -22 2 -18 -4z"/>
<path d="M2546 9804 c-18 -47 24 -163 67 -186 12 -6 27 -18 34 -27 7 -10 12
-11 13 -4 0 6 -13 21 -29 33 -43 30 -84 119 -77 164 6 38 2 47 -8 20z"/>
<path d="M3249 9793 c14 -27 91 -99 91 -86 0 7 -13 21 -28 31 -15 11 -34 32
-42 46 -7 14 -17 26 -22 26 -5 0 -4 -8 1 -17z"/>
<path d="M4485 9790 c3 -5 8 -10 11 -10 2 0 4 5 4 10 0 6 -5 10 -11 10 -5 0
-7 -4 -4 -10z"/>
<path d="M2731 9772 c-2 -53 67 -141 137 -176 44 -22 40 -14 -7 17 -58 38 -89
76 -111 132 -12 33 -19 42 -19 27z"/>
<path d="M3632 9780 c2 -8 28 -26 57 -40 28 -14 49 -28 46 -31 -3 -4 6 -4 20
-1 23 4 18 8 -37 30 -35 14 -69 32 -76 41 -11 13 -13 14 -10 1z"/>
<path d="M3600 9760 c0 -11 59 -44 66 -37 3 2 -11 14 -31 25 -19 12 -35 17
-35 12z"/>
<path d="M3485 9750 c10 -16 45 -32 45 -20 0 5 -7 10 -15 10 -8 0 -15 5 -15
10 0 6 -5 10 -11 10 -5 0 -7 -4 -4 -10z"/>
<path d="M3905 9750 c11 -5 27 -9 35 -9 13 -1 13 0 0 9 -8 5 -24 9 -35 9 -20
0 -20 0 0 -9z"/>
<path d="M2844 9723 c21 -40 74 -92 118 -114 51 -26 72 -24 23 2 -63 34 -100
66 -121 104 -10 19 -22 35 -27 35 -4 0 -1 -12 7 -27z"/>
<path d="M3970 9740 c20 -13 33 -13 25 0 -3 6 -14 10 -23 10 -15 0 -15 -2 -2
-10z"/>
<path d="M60 9684 c173 -153 328 -331 515 -589 135 -187 244 -286 389 -357 25
-12 42 -26 39 -31 -3 -6 -1 -7 6 -3 14 9 83 -13 76 -24 -3 -4 5 -6 17 -2 16 4
19 2 13 -8 -5 -8 -4 -11 3 -6 16 10 63 -4 55 -17 -3 -6 -1 -7 5 -3 7 4 56 -4
109 -18 54 -14 179 -44 277 -66 251 -55 360 -110 408 -203 28 -55 22 -131 -15
-186 -31 -47 -116 -113 -135 -106 -7 3 -11 1 -8 -4 3 -4 -18 -18 -47 -31 -182
-80 -257 -121 -288 -158 -19 -22 -40 -37 -46 -35 -22 8 3 39 57 74 27 18 50
33 50 34 0 0 -9 1 -20 1 -10 0 -17 -2 -15 -4 2 -3 -14 -18 -35 -33 -90 -65
-126 -154 -117 -287 5 -81 45 -272 57 -272 4 0 -4 44 -17 98 -33 134 -40 234
-20 302 19 66 37 93 55 82 10 -7 10 -15 -2 -43 -24 -59 -28 -138 -11 -224 20
-108 48 -215 56 -215 3 0 -7 51 -23 113 -72 282 -21 407 209 507 176 77 202
91 257 141 64 58 86 100 86 163 0 61 -19 104 -66 150 -74 72 -142 98 -431 162
-398 88 -597 171 -748 311 -50 46 -127 141 -230 283 -54 74 -130 173 -170 220
-82 97 -273 284 -325 319 -19 12 -6 -3 30 -35z"/>
<path d="M2690 9733 c0 -11 37 -71 58 -93 21 -22 132 -84 132 -73 0 4 -19 17
-42 27 -47 22 -128 98 -128 120 0 8 -4 18 -10 21 -5 3 -10 3 -10 -2z"/>
<path d="M4012 9734 c3 -3 43 -11 89 -19 135 -21 184 -27 177 -19 -4 3 -63 15
-130 25 -138 21 -144 21 -136 13z"/>
<path d="M2659 9691 c11 -21 34 -51 52 -65 36 -31 122 -76 141 -75 7 0 -15 14
-49 30 -61 30 -143 107 -143 135 0 8 -5 14 -10 14 -6 0 -2 -17 9 -39z"/>
<path d="M3673 9715 c-7 -8 -9 -16 -4 -19 5 -3 12 1 15 10 8 22 4 25 -11 9z"/>
<path d="M3269 9700 c13 -11 29 -20 36 -20 7 0 16 -6 18 -12 4 -10 6 -10 6 0
1 7 -10 17 -23 22 -13 5 -27 14 -31 19 -3 6 -12 11 -18 11 -7 -1 -1 -10 12
-20z"/>
<path d="M3410 9711 c0 -10 82 -44 144 -60 63 -16 54 -5 -10 14 -32 9 -75 26
-96 36 -21 11 -38 15 -38 10z"/>
<path d="M3503 9699 c22 -11 41 -18 44 -15 4 3 -10 13 -30 21 -51 21 -59 18
-14 -6z"/>
<path d="M3560 9709 c0 -5 4 -9 9 -9 5 0 17 -3 27 -7 11 -4 15 -3 11 4 -9 14
-47 24 -47 12z"/>
<path d="M3352 9702 c2 -8 7 -13 12 -12 5 1 12 -3 15 -8 7 -11 51 -26 51 -18
0 9 -60 37 -60 29 0 -5 -5 -1 -11 7 -7 10 -9 11 -7 2z"/>
<path d="M3740 9690 c-9 -6 -10 -10 -3 -10 6 0 15 5 18 10 8 12 4 12 -15 0z"/>
<path d="M3870 9690 c20 -13 33 -13 25 0 -3 6 -14 10 -23 10 -15 0 -15 -2 -2
-10z"/>
<path d="M4295 9690 c3 -5 13 -10 21 -10 8 0 12 5 9 10 -3 6 -13 10 -21 10 -8
0 -12 -4 -9 -10z"/>
<path d="M3560 9680 c0 -5 5 -10 10 -10 6 0 10 5 10 10 0 6 -4 10 -10 10 -5 0
-10 -4 -10 -10z"/>
<path d="M3700 9680 c-9 -6 -10 -10 -3 -10 6 0 15 5 18 10 8 12 4 12 -15 0z"/>
<path d="M4345 9680 c3 -5 18 -10 33 -10 21 0 24 2 12 10 -20 13 -53 13 -45 0z"/>
<path d="M3600 9671 c8 -4 29 -11 45 -15 19 -4 25 -3 15 3 -8 4 -28 11 -45 15
-19 4 -25 3 -15 -3z"/>
<path d="M3995 9666 c10 -7 27 -11 37 -8 10 2 25 -1 33 -8 11 -9 15 -9 15 -1
0 13 -10 17 -64 25 -34 4 -36 4 -21 -8z"/>
<path d="M4416 9671 c5 -5 27 -12 49 -16 25 -4 36 -3 30 3 -5 5 -28 12 -49 15
-22 4 -35 2 -30 -2z"/>
<path d="M25 9643 c17 -14 51 -45 77 -70 27 -24 48 -40 48 -34 0 12 -131 131
-145 131 -5 0 3 -12 20 -27z"/>
<path d="M3340 9660 c0 -4 9 -10 20 -13 11 -3 20 -2 20 3 0 4 -9 10 -20 13
-11 3 -20 2 -20 -3z"/>
<path d="M3440 9659 c0 -5 4 -9 9 -9 5 0 17 -3 27 -7 11 -4 15 -3 11 4 -9 14
-47 24 -47 12z"/>
<path d="M3028 9640 c13 -10 48 -28 80 -40 31 -12 60 -27 64 -33 5 -8 8 -6 8
5 0 9 6 18 13 21 6 2 2 3 -9 1 -27 -5 -78 13 -126 43 -45 28 -62 30 -30 3z"/>
<path d="M4120 9653 c8 -3 19 -11 23 -17 6 -7 7 -6 4 4 -2 8 -12 16 -23 17
-13 2 -15 1 -4 -4z"/>
<path d="M3394 9642 c3 -6 41 -18 84 -27 42 -9 88 -18 102 -21 14 -3 22 -3 18
1 -3 4 -44 15 -90 25 -45 10 -92 22 -102 26 -13 5 -17 4 -12 -4z"/>
<path d="M3505 9640 c3 -5 11 -10 16 -10 6 0 7 5 4 10 -3 6 -11 10 -16 10 -6
0 -7 -4 -4 -10z"/>
<path d="M3628 9638 c5 -5 16 -8 23 -6 8 3 3 7 -10 11 -17 4 -21 3 -13 -5z"/>
<path d="M3750 9640 c8 -5 20 -10 25 -10 6 0 3 5 -5 10 -8 5 -19 10 -25 10 -5
0 -3 -5 5 -10z"/>
<path d="M4160 9646 c0 -2 13 -6 29 -8 17 -2 28 -1 25 4 -5 8 -54 12 -54 4z"/>
<path d="M3170 9625 c14 -7 27 -11 30 -9 6 7 -22 24 -40 23 -9 0 -5 -6 10 -14z"/>
<path d="M3230 9630 c0 -5 6 -11 13 -14 6 -4 2 -4 -11 -2 -12 2 -19 0 -16 -6
3 -5 20 -6 36 -3 20 5 28 4 24 -3 -3 -6 -1 -14 5 -18 8 -4 9 -3 5 4 -5 8 1 12
16 12 19 0 20 -2 8 -11 -10 -7 -11 -9 -2 -7 26 7 13 22 -32 39 -25 9 -46 13
-46 9z"/>
<path d="M3545 9630 c3 -5 14 -10 23 -10 15 0 15 2 2 10 -20 13 -33 13 -25 0z"/>
<path d="M3670 9636 c0 -2 7 -7 16 -10 8 -3 12 -2 9 4 -6 10 -25 14 -25 6z"/>
<path d="M3920 9636 c0 -2 7 -7 16 -10 8 -3 12 -2 9 4 -6 10 -25 14 -25 6z"/>
<path d="M4255 9630 c11 -5 27 -9 35 -9 9 0 8 4 -5 9 -11 5 -27 9 -35 9 -9 0
-8 -4 5 -9z"/>
<path d="M3130 9621 c0 -10 30 -24 37 -17 3 2 -5 9 -16 16 -12 6 -21 7 -21 1z"/>
<path d="M3595 9620 c3 -5 14 -10 23 -10 15 0 15 2 2 10 -20 13 -33 13 -25 0z"/>
<path d="M4310 9626 c0 -2 7 -7 16 -10 8 -3 12 -2 9 4 -6 10 -25 14 -25 6z"/>
<path d="M3650 9610 c8 -5 24 -9 35 -9 20 0 20 0 0 9 -11 5 -27 9 -35 9 -13 1
-13 0 0 -9z"/>
<path d="M3758 9613 c7 -3 16 -2 19 1 4 3 -2 6 -13 5 -11 0 -14 -3 -6 -6z"/>
<path d="M3797 9609 c7 -7 15 -10 18 -7 3 3 -2 9 -12 12 -14 6 -15 5 -6 -5z"/>
<path d="M3998 9613 c6 -2 18 -2 25 0 6 3 1 5 -13 5 -14 0 -19 -2 -12 -5z"/>
<path d="M4033 9605 c-12 -13 -7 -25 9 -25 5 0 7 4 3 9 -3 5 3 11 12 13 15 3
15 5 3 10 -8 3 -20 0 -27 -7z"/>
<path d="M4195 9610 c-11 -5 -15 -9 -10 -10 6 0 27 -4 47 -9 22 -5 36 -5 32 0
-3 5 -17 9 -32 9 -21 0 -24 2 -12 10 18 12 2 12 -25 0z"/>
<path d="M4351 9616 c12 -10 60 -16 54 -6 -3 5 -18 10 -32 10 -15 0 -24 -2
-22 -4z"/>
<path d="M0 9601 c0 -5 6 -14 14 -18 66 -39 278 -266 460 -493 73 -91 160
-190 194 -221 66 -61 182 -137 249 -164 31 -12 40 -21 36 -33 -4 -13 -3 -14 5
-4 8 12 22 10 80 -9 39 -12 69 -25 67 -28 -2 -3 7 -6 18 -7 12 0 93 -17 180
-38 87 -20 163 -36 169 -34 6 2 -48 17 -120 32 -73 16 -129 32 -127 36 3 5 -3
6 -14 3 -23 -6 -204 54 -305 101 -154 71 -245 150 -403 349 -137 173 -193 238
-307 355 -113 116 -196 189 -196 173z"/>
<path d="M3717 9599 c7 -7 15 -10 18 -7 3 3 -2 9 -12 12 -14 6 -15 5 -6 -5z"/>
<path d="M3840 9600 c20 -13 33 -13 25 0 -3 6 -14 10 -23 10 -15 0 -15 -2 -2
-10z"/>
<path d="M3977 9599 c7 -7 15 -10 18 -7 3 3 -2 9 -12 12 -14 6 -15 5 -6 -5z"/>
<path d="M4090 9600 c8 -5 20 -10 25 -10 6 0 3 5 -5 10 -8 5 -19 10 -25 10 -5
0 -3 -5 5 -10z"/>
<path d="M4310 9600 c8 -5 20 -10 25 -10 6 0 3 5 -5 10 -8 5 -19 10 -25 10 -5
0 -3 -5 5 -10z"/>
<path d="M4420 9606 c0 -2 7 -6 15 -10 8 -3 15 -1 15 4 0 6 -7 10 -15 10 -8 0
-15 -2 -15 -4z"/>
<path d="M3620 9590 c8 -5 20 -10 25 -10 6 0 3 5 -5 10 -8 5 -19 10 -25 10 -5
0 -3 -5 5 -10z"/>
<path d="M3755 9590 c3 -5 14 -10 23 -10 15 0 15 2 2 10 -20 13 -33 13 -25 0z"/>
<path d="M3897 9591 c4 -4 40 -14 78 -21 39 -7 77 -15 85 -17 13 -4 13 -3 0 5
-18 12 -176 43 -163 33z"/>
<path d="M4140 9590 c8 -5 20 -10 25 -10 6 0 3 5 -5 10 -8 5 -19 10 -25 10 -5
0 -3 -5 5 -10z"/>
<path d="M4367 9589 c7 -7 15 -10 18 -7 3 3 -2 9 -12 12 -14 6 -15 5 -6 -5z"/>
<path d="M4470 9590 c19 -13 30 -13 30 0 0 6 -10 10 -22 10 -19 0 -20 -2 -8
-10z"/>
<path d="M3108 9578 c5 -5 16 -8 23 -6 8 3 3 7 -10 11 -17 4 -21 3 -13 -5z"/>
<path d="M3355 9580 c-3 -6 1 -7 9 -4 18 7 21 14 7 14 -6 0 -13 -4 -16 -10z"/>
<path d="M3405 9570 c10 -11 20 -20 23 -20 3 0 -3 9 -13 20 -10 11 -20 20 -23
20 -3 0 3 -9 13 -20z"/>
<path d="M3668 9583 c7 -3 16 -2 19 1 4 3 -2 6 -13 5 -11 0 -14 -3 -6 -6z"/>
<path d="M3810 9580 c8 -5 24 -9 35 -9 20 0 20 0 0 9 -11 5 -27 9 -35 9 -13 1
-13 0 0 -9z"/>
<path d="M4065 9580 c3 -5 11 -10 16 -10 6 0 7 5 4 10 -3 6 -11 10 -16 10 -6
0 -7 -4 -4 -10z"/>
<path d="M4185 9582 c6 -5 24 -13 40 -16 19 -5 26 -4 20 2 -5 5 -23 13 -40 16
-19 5 -26 4 -20 -2z"/>
<path d="M4315 9576 c17 -8 32 -12 34 -10 7 6 -2 11 -34 17 l-30 6 30 -13z"/>
<path d="M4405 9580 c3 -5 11 -10 16 -10 6 0 7 5 4 10 -3 6 -11 10 -16 10 -6
0 -7 -4 -4 -10z"/>
<path d="M3240 9576 c0 -2 8 -10 18 -17 15 -13 16 -12 3 4 -13 16 -21 21 -21
13z"/>
<path d="M3442 9566 c7 -8 15 -12 17 -11 5 6 -10 25 -20 25 -5 0 -4 -6 3 -14z"/>
<path d="M3720 9571 c53 -17 85 -22 75 -13 -5 6 -30 13 -55 16 -30 4 -37 3
-20 -3z"/>
<path d="M3870 9570 c0 -5 5 -10 11 -10 5 0 7 5 4 10 -3 6 -8 10 -11 10 -2 0
-4 -4 -4 -10z"/>
<path d="M4110 9570 c8 -5 22 -10 30 -10 13 0 13 1 0 10 -8 5 -22 10 -30 10
-13 0 -13 -1 0 -10z"/>
<path d="M4443 9573 c8 -13 57 -23 57 -12 0 5 -6 9 -14 9 -8 0 -22 3 -32 7
-11 4 -15 3 -11 -4z"/>
<path d="M2886 9553 c-6 -14 -5 -15 5 -6 7 7 10 15 7 18 -3 3 -9 -2 -12 -12z"/>
<path d="M2925 9559 c-11 -18 3 -22 37 -12 30 8 31 10 10 15 -12 3 -20 2 -16
-3 3 -5 -2 -9 -11 -9 -9 0 -13 5 -10 10 3 6 4 10 1 10 -3 0 -8 -5 -11 -11z"/>
<path d="M3336 9557 c3 -10 9 -15 12 -12 3 3 0 11 -7 18 -10 9 -11 8 -5 -6z"/>
<path d="M3905 9560 c3 -5 13 -10 21 -10 8 0 12 5 9 10 -3 6 -13 10 -21 10 -8
0 -12 -4 -9 -10z"/>
<path d="M4160 9560 c0 -5 5 -10 11 -10 5 0 7 5 4 10 -3 6 -8 10 -11 10 -2 0
-4 -4 -4 -10z"/>
<path d="M4265 9560 c3 -5 11 -10 16 -10 6 0 7 5 4 10 -3 6 -11 10 -16 10 -6
0 -7 -4 -4 -10z"/>
<path d="M4370 9560 c20 -13 33 -13 25 0 -3 6 -14 10 -23 10 -15 0 -15 -2 -2
-10z"/>
<path d="M3825 9550 c3 -5 11 -10 16 -10 6 0 7 5 4 10 -3 6 -11 10 -16 10 -6
0 -7 -4 -4 -10z"/>
<path d="M3955 9550 c3 -5 11 -10 16 -10 6 0 7 5 4 10 -3 6 -11 10 -16 10 -6
0 -7 -4 -4 -10z"/>
<path d="M4083 9553 c9 -14 47 -24 47 -12 0 5 -4 9 -9 9 -5 0 -17 3 -27 7 -11
4 -15 3 -11 -4z"/>
<path d="M4195 9552 c13 -13 115 -43 115 -34 0 5 -19 13 -42 19 -24 7 -52 15
-63 19 -14 5 -17 4 -10 -4z"/>
<path d="M4305 9552 c13 -12 77 -34 83 -27 5 4 -21 16 -68 30 -16 5 -22 4 -15
-3z"/>
<path d="M4410 9554 c0 -5 28 -16 70 -29 14 -4 21 -4 17 1 -9 10 -87 34 -87
28z"/>
<path d="M3470 9538 c0 -4 4 -8 9 -8 6 0 12 4 15 8 3 5 -1 9 -9 9 -8 0 -15 -4
-15 -9z"/>
<path d="M3870 9541 c21 -12 90 -25 70 -13 -8 5 -31 12 -50 15 -22 4 -29 3
-20 -2z"/>
<path d="M3995 9540 c3 -5 11 -10 16 -10 6 0 7 5 4 10 -3 6 -11 10 -16 10 -6
0 -7 -4 -4 -10z"/>
<path d="M0 9538 c0 -2 80 -85 178 -185 97 -100 199 -209 226 -243 26 -33 51
-59 53 -56 9 9 -149 189 -287 326 -123 123 -170 166 -170 158z"/>
<path d="M3025 9531 c-3 -5 -1 -12 5 -16 5 -3 10 1 10 9 0 18 -6 21 -15 7z"/>
<path d="M3650 9530 c0 -5 5 -10 11 -10 5 0 7 5 4 10 -3 6 -8 10 -11 10 -2 0
-4 -4 -4 -10z"/>
<path d="M4035 9533 c15 -16 55 -26 55 -14 0 6 -6 11 -14 11 -8 0 -23 3 -33 6
-12 5 -15 4 -8 -3z"/>
<path d="M4140 9536 c0 -2 7 -7 16 -10 8 -3 12 -2 9 4 -6 10 -25 14 -25 6z"/>
<path d="M160 9528 c0 -4 49 -58 184 -203 21 -22 36 -35 34 -28 -7 24 -218
248 -218 231z"/>
<path d="M3693 9515 c0 -8 6 -16 14 -19 11 -4 11 -1 3 14 -13 24 -17 25 -17 5z"/>
<path d="M3960 9520 c0 -4 26 -14 58 -24 31 -9 63 -19 70 -22 6 -3 12 -2 12 3
0 5 -31 18 -70 30 -38 11 -70 17 -70 13z"/>
<path d="M4185 9520 c3 -5 8 -10 11 -10 2 0 4 5 4 10 0 6 -5 10 -11 10 -5 0
-7 -4 -4 -10z"/>
<path d="M3211 9516 c2 -2 61 -16 130 -31 112 -24 126 -30 125 -48 -1 -12 8
-23 22 -28 15 -6 21 -5 17 1 -3 6 -12 10 -19 10 -7 0 -13 7 -13 15 0 8 9 15
19 15 10 0 17 -5 15 -11 -1 -6 5 -14 13 -16 13 -4 13 -3 0 7 -26 20 47 1 160
-41 193 -72 233 -103 538 -408 150 -150 275 -271 277 -269 8 8 -496 509 -557
553 -107 80 -293 160 -450 195 -32 7 -55 16 -53 20 2 4 -7 5 -22 2 -18 -3 -24
-1 -19 6 4 8 2 10 -8 6 -8 -3 -47 1 -85 10 -69 16 -98 20 -90 12z"/>
<path d="M3735 9510 c3 -5 8 -10 11 -10 2 0 4 5 4 10 0 6 -5 10 -11 10 -5 0
-7 -4 -4 -10z"/>
<path d="M4103 9513 c9 -14 47 -24 47 -12 0 5 -4 9 -9 9 -5 0 -17 3 -27 7 -11
4 -15 3 -11 -4z"/>
<path d="M4215 9510 c3 -5 8 -10 11 -10 2 0 4 5 4 10 0 6 -5 10 -11 10 -5 0
-7 -4 -4 -10z"/>
<path d="M4320 9512 c0 -4 27 -16 60 -28 33 -12 60 -18 60 -13 0 4 -27 16 -60
27 -33 12 -60 18 -60 14z"/>
<path d="M4426 9511 c11 -10 74 -32 74 -25 0 5 -65 34 -77 34 -4 0 -3 -4 3 -9z"/>
<path d="M3500 9501 c0 -6 4 -12 8 -15 5 -3 9 1 9 9 0 8 -4 15 -9 15 -4 0 -8
-4 -8 -9z"/>
<path d="M3775 9500 c3 -5 11 -10 16 -10 6 0 7 5 4 10 -3 6 -11 10 -16 10 -6
0 -7 -4 -4 -10z"/>
<path d="M4245 9500 c3 -5 8 -10 11 -10 2 0 4 5 4 10 0 6 -5 10 -11 10 -5 0
-7 -4 -4 -10z"/>
<path d="M3545 9491 c-3 -5 -2 -12 3 -15 5 -3 9 1 9 9 0 17 -3 19 -12 6z"/>
<path d="M3835 9486 c17 -8 32 -12 34 -10 7 6 -2 11 -34 17 l-30 6 30 -13z"/>
<path d="M4163 9493 c9 -14 67 -35 67 -24 0 5 -8 11 -17 14 -10 2 -27 8 -37
13 -13 5 -17 4 -13 -3z"/>
<path d="M4270 9490 c0 -4 9 -10 20 -13 11 -3 20 -2 20 3 0 4 -9 10 -20 13
-11 3 -20 2 -20 -3z"/>
<path d="M3025 9485 c6 -2 82 -20 170 -41 319 -73 508 -160 648 -297 29 -28
115 -131 192 -227 134 -168 448 -500 461 -487 4 3 -18 29 -49 57 -30 28 -71
65 -91 83 -64 59 -197 210 -331 377 -72 91 -159 190 -193 221 -66 61 -182 137
-249 164 -31 12 -40 21 -36 33 4 13 3 14 -5 4 -8 -12 -22 -10 -80 9 -61 19
-70 25 -62 40 7 12 6 19 -4 22 -10 4 -12 0 -8 -15 5 -19 2 -20 -24 -14 -176
45 -391 90 -339 71z"/>
<path d="M3660 9480 c-8 -5 -10 -10 -5 -10 6 0 17 5 25 10 8 5 11 10 5 10 -5
0 -17 -5 -25 -10z"/>
<path d="M3625 9471 c-3 -5 -2 -12 3 -15 5 -3 9 1 9 9 0 17 -3 19 -12 6z"/>
<path d="M3718 9473 c7 -3 16 -2 19 1 4 3 -2 6 -13 5 -11 0 -14 -3 -6 -6z"/>
<path d="M3775 9471 c-3 -5 -2 -12 3 -15 5 -3 9 1 9 9 0 17 -3 19 -12 6z"/>
<path d="M3804 9465 c1 -8 6 -18 11 -22 4 -4 5 -2 1 5 -4 6 -2 12 4 12 6 0 8
5 5 10 -9 15 -24 12 -21 -5z"/>
<path d="M3886 9469 c5 -8 -1 -10 -19 -7 -30 6 -28 -7 3 -15 11 -3 20 -1 20 4
0 5 6 9 14 9 25 0 209 -79 268 -115 31 -19 60 -35 65 -35 33 2 -179 111 -281
146 -80 28 -79 28 -70 13z"/>
<path d="M4114 9472 c3 -5 45 -26 93 -47 48 -21 110 -54 138 -72 27 -18 55
-33 62 -33 6 0 13 -3 15 -7 6 -15 78 -64 78 -54 0 6 -37 34 -82 64 -94 60
-228 132 -228 121 0 -3 -6 -2 -13 4 -17 15 -69 34 -63 24z"/>
<path d="M4320 9472 c0 -4 14 -13 30 -19 17 -6 30 -8 30 -3 0 4 -13 13 -30 19
-16 5 -30 7 -30 3z"/>
<path d="M0 9468 c0 -2 67 -71 148 -153 82 -83 208 -219 281 -303 73 -83 142
-157 154 -163 12 -6 -1 13 -29 42 -28 30 -102 113 -164 184 -130 149 -273 299
-342 357 -27 22 -48 38 -48 36z"/>
<path d="M3690 9460 c8 -5 20 -10 25 -10 6 0 3 5 -5 10 -8 5 -19 10 -25 10 -5
0 -3 -5 5 -10z"/>
<path d="M4450 9462 c0 -4 11 -12 25 -19 14 -6 25 -8 25 -4 0 4 -11 13 -25 19
-14 6 -25 8 -25 4z"/>
<path d="M3560 9456 c0 -2 9 -6 20 -9 11 -3 18 -1 14 4 -5 9 -34 13 -34 5z"/>
<path d="M3656 9449 c5 -8 -1 -10 -20 -7 -18 4 -24 2 -18 -4 6 -6 18 -8 28 -6
19 3 32 28 14 28 -6 0 -8 -5 -4 -11z"/>
<path d="M3737 9449 c7 -7 15 -10 18 -7 3 3 -2 9 -12 12 -14 6 -15 5 -6 -5z"/>
<path d="M4260 9455 c0 -2 14 -11 30 -20 17 -9 30 -12 30 -7 0 5 -11 14 -25
20 -28 13 -35 14 -35 7z"/>
<path d="M3835 9440 c3 -4 14 -10 25 -13 11 -3 18 -2 15 3 -3 4 -14 10 -25 13
-11 3 -18 2 -15 -3z"/>
<path d="M3905 9440 c3 -5 8 -10 11 -10 2 0 4 5 4 10 0 6 -5 10 -11 10 -5 0
-7 -4 -4 -10z"/>
<path d="M4390 9442 c0 -4 25 -20 55 -35 30 -15 55 -23 55 -19 0 4 -25 20 -55
35 -30 15 -55 23 -55 19z"/>
<path d="M3720 9430 c0 -5 5 -10 11 -10 5 0 7 5 4 10 -3 6 -8 10 -11 10 -2 0
-4 -4 -4 -10z"/>
<path d="M3790 9434 c0 -2 9 -8 20 -14 11 -6 20 -7 20 -2 0 6 -9 12 -20 15
-11 3 -20 3 -20 1z"/>
<path d="M3930 9435 c0 -7 57 -35 71 -35 7 0 10 2 8 5 -9 8 -79 35 -79 30z"/>
<path d="M3890 9420 c0 -4 9 -10 20 -13 11 -3 20 -2 20 3 0 4 -9 10 -20 13
-11 3 -20 2 -20 -3z"/>
<path d="M4330 9423 c0 -4 23 -20 50 -34 65 -35 65 -22 0 14 -28 16 -50 25
-50 20z"/>
<path d="M3537 9413 c-12 -12 -7 -21 16 -26 20 -5 20 -5 5 7 -10 7 -15 16 -11
19 3 4 4 7 1 7 -2 0 -8 -3 -11 -7z"/>
<path d="M3565 9410 c3 -4 14 -10 25 -13 11 -3 18 -2 15 3 -3 4 -14 10 -25 13
-11 3 -18 2 -15 -3z"/>
<path d="M3774 9411 c3 -5 16 -11 28 -14 22 -6 22 -5 4 8 -22 17 -40 20 -32 6z"/>
<path d="M3440 9406 c0 -2 7 -7 16 -10 8 -3 12 -2 9 4 -6 10 -25 14 -25 6z"/>
<path d="M3735 9401 c3 -5 19 -14 35 -20 17 -5 28 -6 25 -2 -3 5 -19 14 -35
20 -17 5 -28 6 -25 2z"/>
<path d="M3870 9406 c0 -3 29 -20 65 -39 36 -19 65 -32 65 -28 0 4 -29 21 -65
39 -36 17 -65 30 -65 28z"/>
<path d="M135 9262 c77 -78 144 -142 150 -142 11 0 -210 221 -259 259 -17 13
32 -40 109 -117z"/>
<path d="M3624 9391 c3 -5 20 -14 38 -20 38 -13 26 0 -15 17 -16 7 -26 8 -23
3z"/>
<path d="M3573 9375 c-7 -8 -9 -16 -4 -19 5 -3 12 1 15 10 8 22 4 25 -11 9z"/>
<path d="M3850 9383 c0 -5 33 -25 73 -45 40 -21 103 -63 141 -94 37 -31 70
-54 72 -51 6 5 -73 72 -136 114 -58 39 -150 86 -150 76z"/>
<path d="M3980 9381 c0 -5 7 -11 15 -15 8 -3 15 -1 15 3 0 5 -7 11 -15 15 -8
3 -15 1 -15 -3z"/>
<path d="M4050 9379 c0 -6 15 -16 33 -24 41 -17 149 -95 296 -213 63 -50 117
-90 119 -87 3 3 3 6 1 8 -2 2 -39 31 -81 65 -42 34 -81 62 -87 62 -6 0 -11 4
-11 10 0 13 -135 113 -211 155 -32 19 -59 29 -59 24z"/>
<path d="M3610 9371 c0 -10 30 -24 37 -17 3 2 -5 9 -16 16 -12 6 -21 7 -21 1z"/>
<path d="M4020 9363 c1 -4 31 -27 68 -50 37 -23 100 -69 140 -102 39 -34 72
-57 72 -52 0 5 -24 28 -52 53 -92 77 -228 168 -228 151z"/>
<path d="M3590 9356 c0 -3 9 -10 20 -16 11 -6 20 -8 20 -6 0 3 -9 10 -20 16
-11 6 -20 8 -20 6z"/>
<path d="M3720 9352 c0 -4 21 -18 48 -31 87 -43 167 -108 305 -252 75 -78 137
-146 137 -151 0 -4 5 -8 10 -8 6 0 10 4 10 8 0 17 -337 349 -375 370 -22 11
-61 33 -87 47 -27 14 -48 22 -48 17z"/>
<path d="M4466 9346 c6 -15 34 -30 34 -18 0 4 -9 13 -20 19 -16 11 -18 10 -14
-1z"/>
<path d="M3680 9341 c0 -5 22 -18 49 -30 28 -11 53 -26 56 -31 3 -6 12 -10 18
-10 17 1 -19 27 -75 56 -27 13 -48 20 -48 15z"/>
<path d="M3510 9335 c0 -2 23 -16 50 -30 28 -14 50 -23 50 -20 0 2 -22 16 -50
30 -27 14 -50 23 -50 20z"/>
<path d="M0 9328 c3 -3 116 -119 251 -256 255 -259 327 -320 443 -379 71 -36
288 -113 319 -113 10 0 16 -4 13 -9 -3 -4 6 -6 21 -3 19 4 24 2 18 -8 -5 -9
-4 -11 3 -6 15 9 337 -59 425 -89 187 -65 261 -187 191 -315 -32 -60 -73 -98
-150 -142 -30 -17 -53 -32 -51 -35 9 -8 112 59 155 100 59 57 82 104 82 170 0
97 -72 177 -209 228 -42 15 -447 109 -473 109 -3 0 -5 10 -4 21 1 14 -7 25
-22 30 -15 6 -21 5 -17 -1 3 -6 12 -10 19 -10 7 0 13 -7 13 -15 0 -8 -9 -15
-19 -15 -10 0 -17 5 -15 11 1 6 -5 14 -13 16 -13 4 -13 3 0 -7 27 -21 -43 -3
-157 40 -194 73 -240 107 -498 366 -186 187 -351 346 -325 312z"/>
<path d="M3900 9321 c0 -10 30 -24 37 -17 3 2 -5 9 -16 16 -12 6 -21 7 -21 1z"/>
<path d="M4049 9302 c67 -46 183 -147 399 -345 24 -21 45 -37 48 -34 6 6 -324
303 -397 358 -29 21 -57 39 -63 38 -6 0 0 -7 13 -17z"/>
<path d="M3690 9300 c8 -5 20 -10 25 -10 6 0 3 5 -5 10 -8 5 -19 10 -25 10 -5
0 -3 -5 5 -10z"/>
<path d="M4251 9303 c3 -9 71 -62 231 -181 10 -7 18 -9 18 -5 0 8 -32 33 -213
167 -22 17 -38 25 -36 19z"/>
<path d="M3730 9283 c0 -4 22 -22 48 -40 26 -18 69 -53 96 -78 68 -62 72 -57
6 10 -30 30 -60 55 -66 55 -7 0 -14 6 -17 13 -6 14 -67 52 -67 40z"/>
<path d="M441 9200 c34 -44 66 -80 71 -80 5 0 -19 36 -53 80 -34 44 -66 80
-71 80 -5 0 19 -36 53 -80z"/>
<path d="M3970 9276 c0 -2 26 -25 57 -51 32 -26 149 -137 261 -247 112 -110
207 -197 210 -193 4 4 -4 16 -18 27 -14 10 -101 95 -195 187 -230 226 -315
301 -315 277z"/>
<path d="M3820 9261 c0 -5 5 -13 10 -16 6 -3 10 -2 10 4 0 5 -4 13 -10 16 -5
3 -10 2 -10 -4z"/>
<path d="M0 9252 c0 -6 10 -18 23 -27 12 -8 98 -91 192 -183 198 -196 293
-282 311 -282 7 0 15 -6 17 -12 4 -10 6 -10 6 -1 1 7 -8 17 -18 23 -35 18
-112 88 -291 264 -213 208 -240 233 -240 218z"/>
<path d="M3670 9256 c0 -9 53 -55 63 -56 4 0 0 8 -10 18 -27 27 -53 45 -53 38z"/>
<path d="M3850 9243 c0 -13 29 -38 35 -31 3 3 -4 13 -15 23 -11 10 -20 13 -20
8z"/>
<path d="M3750 9195 c0 -13 118 -130 125 -124 2 3 -25 34 -60 69 -36 36 -65
60 -65 55z"/>
<path d="M3955 9139 c33 -35 120 -133 193 -216 141 -160 340 -359 350 -349 3
4 -3 13 -14 20 -40 29 -249 248 -401 420 -87 99 -165 182 -173 184 -8 3 12
-24 45 -59z"/>
<path d="M1 9185 c2 -6 38 -41 79 -79 41 -38 116 -109 166 -157 50 -49 95 -89
100 -89 5 1 -44 52 -109 115 -129 124 -243 226 -236 210z"/>
<path d="M4240 9088 c160 -156 260 -246 260 -232 0 5 -39 43 -86 84 -48 41
-119 108 -158 148 -39 41 -80 78 -91 84 -11 5 23 -32 75 -84z"/>
<path d="M4341 9117 c110 -98 159 -138 159 -130 0 11 -176 163 -187 163 -4 -1
8 -15 28 -33z"/>
<path d="M0 9116 c0 -5 264 -243 349 -314 75 -63 141 -107 141 -94 0 4 -24 23
-52 42 -71 48 -184 145 -385 331 -37 35 -53 46 -53 35z"/>
<path d="M390 8990 c124 -132 199 -202 258 -237 75 -45 132 -73 132 -64 0 5
-14 14 -32 22 -81 33 -179 112 -306 245 -74 76 -141 143 -150 148 -9 5 35 -46
98 -114z"/>
<path d="M561 9045 c28 -36 54 -64 56 -61 6 6 -88 126 -99 126 -4 0 15 -29 43
-65z"/>
<path d="M3977 9055 c26 -30 51 -55 56 -55 4 0 7 -5 7 -11 0 -14 151 -192 157
-185 7 6 -246 306 -258 306 -6 0 11 -25 38 -55z"/>
<path d="M10 9043 c21 -31 184 -169 171 -145 -6 11 -22 28 -35 39 -13 10 -53
43 -88 73 -34 30 -56 45 -48 33z"/>
<path d="M3880 9056 c0 -12 153 -206 162 -206 8 0 -40 69 -62 90 -3 3 -25 31
-49 63 -40 53 -51 64 -51 53z"/>
<path d="M485 9008 c70 -78 190 -198 199 -198 5 0 15 -8 22 -17 7 -10 14 -13
14 -7 0 7 -17 24 -37 40 -43 32 -143 133 -180 182 -14 17 -30 32 -36 32 -6 0
2 -15 18 -32z"/>
<path d="M8 8977 c16 -19 147 -127 155 -127 2 0 20 -14 38 -31 65 -61 249
-177 249 -158 0 5 -12 15 -27 21 -45 20 -136 83 -248 173 -58 47 -110 85 -115
85 -6 0 -10 4 -10 9 0 5 -12 17 -28 27 -22 15 -25 15 -14 1z"/>
<path d="M680 8905 c35 -35 66 -62 69 -60 6 7 -111 125 -124 125 -5 0 19 -29
55 -65z"/>
<path d="M0 8923 c0 -7 80 -69 213 -167 22 -17 38 -25 36 -19 -3 9 -56 51
-211 165 -21 16 -38 25 -38 21z"/>
<path d="M4358 8770 c74 -72 136 -129 138 -127 6 6 -243 251 -259 255 -7 2 48
-56 121 -128z"/>
<path d="M200 8883 c0 -13 94 -92 174 -147 79 -54 166 -100 166 -88 0 4 -25
20 -56 35 -31 15 -80 45 -109 67 -30 22 -59 40 -65 40 -5 0 -10 4 -10 8 0 5
-22 28 -50 51 -27 23 -50 38 -50 34z"/>
<path d="M360 8851 c0 -11 76 -75 140 -118 58 -39 150 -86 150 -76 0 5 -33 25
-74 46 -41 21 -106 65 -145 98 -39 32 -71 55 -71 50z"/>
<path d="M0 8845 c0 -2 42 -34 94 -70 253 -176 365 -220 786 -305 135 -28 265
-57 290 -66 171 -62 240 -185 176 -312 -33 -66 -173 -200 -191 -184 -5 4 -5 2
-2 -4 8 -14 -56 -77 -69 -67 -5 5 -6 4 -2 0 3 -5 -4 -30 -18 -56 -36 -73 -48
-143 -41 -256 7 -113 16 -175 26 -175 4 0 1 39 -6 88 -18 113 -11 230 17 306
24 63 63 107 195 222 84 73 125 141 126 211 1 61 -11 92 -57 143 -68 75 -138
101 -438 160 -413 82 -560 141 -808 321 -65 47 -78 54 -78 44z"/>
<path d="M4050 8835 c0 -13 157 -200 211 -250 37 -35 40 -36 19 -8 -14 17 -56
67 -95 110 -38 43 -84 96 -102 118 -18 22 -32 36 -33 30z"/>
<path d="M625 8810 c10 -11 20 -18 23 -15 7 6 -18 35 -31 35 -5 0 -2 -9 8 -20z"/>
<path d="M780 8822 c0 -6 11 -17 25 -26 14 -9 25 -13 25 -9 -1 12 -50 46 -50
35z"/>
<path d="M665 8780 c3 -5 8 -10 11 -10 2 0 4 5 4 10 0 6 -5 10 -11 10 -5 0 -7
-4 -4 -10z"/>
<path d="M732 8780 c5 -16 88 -63 88 -50 0 5 -11 12 -25 16 -14 3 -25 9 -25
13 0 3 -9 12 -21 19 -15 10 -20 10 -17 2z"/>
<path d="M4210 8784 c0 -5 58 -66 128 -134 133 -129 168 -160 161 -144 -8 17
-289 288 -289 278z"/>
<path d="M19 8760 c13 -11 29 -20 37 -20 8 0 14 -4 14 -9 0 -5 17 -19 38 -31
85 -51 122 -70 122 -63 0 7 -69 50 -125 78 -11 6 -28 18 -37 28 -10 9 -25 17
-33 17 -8 0 -15 5 -15 10 0 6 -6 10 -12 10 -7 -1 -2 -10 11 -20z"/>
<path d="M705 8754 c33 -26 75 -45 75 -35 0 5 -10 13 -22 17 -12 3 -28 13 -36
20 -7 8 -19 14 -25 14 -7 0 -3 -8 8 -16z"/>
<path d="M890 8755 c0 -2 23 -16 50 -30 28 -14 50 -23 50 -20 0 2 -22 16 -50
30 -27 14 -50 23 -50 20z"/>
<path d="M574 8725 c11 -8 22 -12 25 -9 6 6 -19 24 -34 24 -5 -1 -1 -7 9 -15z"/>
<path d="M280 8710 c35 -27 160 -87 253 -121 88 -33 91 -33 81 -18 -5 8 1 10
20 7 32 -6 34 0 4 11 -14 5 -26 5 -29 -1 -12 -19 -214 61 -295 116 -45 30 -71
35 -34 6z"/>
<path d="M15 8700 c21 -24 26 -25 19 -6 -3 8 -13 17 -22 21 -13 5 -13 2 3 -15z"/>
<path d="M790 8711 c0 -5 7 -11 15 -15 8 -3 15 -1 15 3 0 5 -7 11 -15 15 -8 3
-15 1 -15 -3z"/>
<path d="M500 8701 c0 -5 5 -13 10 -16 6 -3 10 -2 10 4 0 5 -4 13 -10 16 -5 3
-10 2 -10 -4z"/>
<path d="M870 8706 c0 -3 9 -10 20 -16 11 -6 20 -8 20 -6 0 3 -9 10 -20 16
-11 6 -20 8 -20 6z"/>
<path d="M50 8681 c0 -17 277 -148 288 -136 3 3 -14 13 -39 22 -24 9 -90 40
-146 69 -57 28 -103 49 -103 45z"/>
<path d="M530 8682 c0 -4 23 -18 50 -29 28 -12 50 -19 50 -17 0 2 -22 15 -50
29 -27 14 -50 22 -50 17z"/>
<path d="M864 8675 c11 -8 22 -12 25 -9 6 6 -19 24 -34 24 -5 -1 -1 -7 9 -15z"/>
<path d="M913 8674 c-7 -7 -9 -15 -5 -17 4 -3 13 1 19 9 7 7 9 15 5 17 -4 3
-13 -1 -19 -9z"/>
<path d="M815 8672 c16 -13 67 -33 61 -23 -3 5 -20 14 -38 20 -18 6 -28 8 -23
3z"/>
<path d="M705 8661 c3 -5 19 -14 35 -20 17 -5 28 -6 25 -2 -3 5 -19 14 -35 20
-17 5 -28 6 -25 2z"/>
<path d="M942 8646 c10 -7 15 -16 11 -20 -4 -4 0 -4 10 0 21 8 14 20 -15 27
-21 5 -21 5 -6 -7z"/>
<path d="M20 8642 c0 -4 25 -20 55 -35 30 -15 55 -23 55 -19 0 4 -25 20 -55
35 -30 15 -55 23 -55 19z"/>
<path d="M685 8640 c7 -12 65 -30 65 -21 0 4 -16 12 -35 18 -19 6 -33 7 -30 3z"/>
<path d="M1037 8639 c7 -7 15 -10 18 -7 3 3 -2 9 -12 12 -14 6 -15 5 -6 -5z"/>
<path d="M240 8631 c0 -4 11 -13 25 -19 14 -6 25 -8 25 -3 0 4 -11 13 -25 19
-14 6 -25 8 -25 3z"/>
<path d="M491 8635 c9 -8 79 -35 79 -30 0 7 -57 35 -71 35 -7 0 -10 -2 -8 -5z"/>
<path d="M570 8630 c0 -4 9 -10 20 -13 11 -3 20 -2 20 3 0 4 -9 10 -20 13 -11
3 -20 2 -20 -3z"/>
<path d="M910 8636 c0 -2 7 -7 16 -10 8 -3 12 -2 9 4 -6 10 -25 14 -25 6z"/>
<path d="M664 8621 c3 -5 16 -11 28 -14 22 -6 22 -5 4 8 -22 17 -40 20 -32 6z"/>
<path d="M625 8610 c3 -4 14 -10 25 -13 11 -3 18 -2 15 3 -3 4 -14 10 -25 13
-11 3 -18 2 -15 -3z"/>
<path d="M765 8610 c3 -5 8 -10 11 -10 2 0 4 5 4 10 0 6 -5 10 -11 10 -5 0 -7
-4 -4 -10z"/>
<path d="M836 8603 c-8 -20 -8 -23 5 -23 5 0 7 5 3 11 -5 8 1 10 19 7 30 -6
28 7 -2 15 -12 3 -22 -1 -25 -10z"/>
<path d="M300 8599 c0 -5 4 -8 9 -4 5 3 12 1 15 -4 6 -10 66 -33 66 -26 0 5
-76 45 -85 45 -3 0 -5 -5 -5 -11z"/>
<path d="M725 8600 c3 -4 14 -10 25 -13 11 -3 18 -2 15 3 -3 4 -14 10 -25 13
-11 3 -18 2 -15 -3z"/>
<path d="M1090 8606 c0 -2 7 -7 16 -10 8 -3 12 -2 9 4 -6 10 -25 14 -25 6z"/>
<path d="M0 8596 c0 -2 7 -7 16 -10 8 -3 12 -2 9 4 -6 10 -25 14 -25 6z"/>
<path d="M140 8582 c0 -4 20 -15 45 -24 25 -10 45 -14 45 -10 0 4 -20 15 -45
24 -25 10 -45 14 -45 10z"/>
<path d="M679 8583 c-1 -5 -1 -12 0 -17 1 -5 -10 -6 -24 -4 -14 3 -25 1 -25
-3 0 -5 6 -9 14 -9 8 0 22 -3 32 -7 12 -4 15 -3 10 5 -4 7 -3 12 2 12 5 0 9 7
9 15 0 15 -16 22 -18 8z"/>
<path d="M797 8579 c7 -7 15 -10 18 -7 3 3 -2 9 -12 12 -14 6 -15 5 -6 -5z"/>
<path d="M60 8570 c0 -4 14 -13 30 -19 17 -5 30 -7 30 -3 0 4 -13 13 -30 19
-16 6 -30 8 -30 3z"/>
<path d="M945 8571 c-6 -11 13 -26 22 -17 4 3 1 6 -6 6 -7 0 -9 5 -6 10 3 6 4
10 1 10 -3 0 -7 -4 -11 -9z"/>
<path d="M400 8561 c0 -9 190 -64 197 -57 3 2 -15 10 -38 16 -24 7 -70 20
-101 30 -32 10 -58 15 -58 11z"/>
<path d="M768 8563 c7 -3 16 -2 19 1 4 3 -2 6 -13 5 -11 0 -14 -3 -6 -6z"/>
<path d="M905 8561 c-3 -5 -2 -12 3 -15 5 -3 9 1 9 9 0 17 -3 19 -12 6z"/>
<path d="M0 8554 c0 -2 9 -8 20 -14 11 -6 20 -7 20 -2 0 6 -9 12 -20 15 -11 3
-20 3 -20 1z"/>
<path d="M983 8545 c0 -8 6 -16 14 -19 11 -4 11 -1 3 14 -13 24 -17 25 -17 5z"/>
<path d="M144 8535 c11 -8 25 -15 30 -15 6 0 2 7 -8 15 -11 8 -25 15 -30 15
-6 0 -2 -7 8 -15z"/>
<path d="M350 8539 c0 -5 4 -9 9 -9 5 0 17 -3 27 -7 11 -4 15 -3 11 4 -9 14
-47 24 -47 12z"/>
<path d="M705 8540 c3 -5 11 -10 16 -10 6 0 7 5 4 10 -3 6 -11 10 -16 10 -6 0
-7 -4 -4 -10z"/>
<path d="M790 8530 c13 -24 17 -25 17 -5 0 8 -6 16 -14 19 -11 4 -11 1 -3 -14z"/>
<path d="M1026 8537 c3 -10 9 -15 12 -12 3 3 0 11 -7 18 -10 9 -11 8 -5 -6z"/>
<path d="M1577 8526 c277 -73 383 -208 286 -364 -16 -26 -48 -61 -71 -79 -44
-33 -69 -43 -56 -21 4 7 3 8 -5 4 -6 -4 -9 -12 -6 -17 4 -5 -21 -21 -55 -35
-33 -15 -59 -29 -56 -31 10 -11 159 72 206 114 141 127 113 286 -68 377 -57
29 -161 61 -222 70 -25 3 -4 -5 47 -18z"/>
<path d="M55 8530 c3 -5 11 -10 16 -10 6 0 7 5 4 10 -3 6 -11 10 -16 10 -6 0
-7 -4 -4 -10z"/>
<path d="M270 8530 c0 -4 28 -15 62 -25 34 -9 69 -20 77 -23 11 -3 13 -2 6 5
-13 14 -145 53 -145 43z"/>
<path d="M750 8530 c0 -5 5 -10 11 -10 5 0 7 5 4 10 -3 6 -8 10 -11 10 -2 0
-4 -4 -4 -10z"/>
<path d="M4362 8481 c100 -93 138 -124 138 -113 0 6 -12 20 -27 32 -16 12 -56
48 -90 81 -35 32 -67 59 -73 59 -6 0 18 -26 52 -59z"/>
<path d="M205 8514 c22 -16 35 -18 35 -5 0 5 -12 11 -27 14 -26 5 -26 4 -8 -9z"/>
<path d="M410 8521 c0 -6 6 -11 14 -11 8 0 23 -3 33 -6 12 -5 15 -4 8 3 -15
16 -55 26 -55 14z"/>
<path d="M10 8511 c0 -6 27 -15 115 -39 11 -3 17 -2 14 2 -10 11 -129 45 -129
37z"/>
<path d="M116 8511 c12 -12 116 -42 122 -36 3 2 -1 7 -9 9 -8 2 -36 11 -63 20
-57 18 -63 19 -50 7z"/>
<path d="M255 8500 c3 -5 8 -10 11 -10 2 0 4 5 4 10 0 6 -5 10 -11 10 -5 0 -7
-4 -4 -10z"/>
<path d="M485 8500 c3 -5 11 -10 16 -10 6 0 7 5 4 10 -3 6 -11 10 -16 10 -6 0
-7 -4 -4 -10z"/>
<path d="M617 8499 c7 -7 15 -10 18 -7 3 3 -2 9 -12 12 -14 6 -15 5 -6 -5z"/>
<path d="M280 8496 c0 -2 7 -7 16 -10 8 -3 12 -2 9 4 -6 10 -25 14 -25 6z"/>
<path d="M525 8490 c3 -5 11 -10 16 -10 6 0 7 5 4 10 -3 6 -11 10 -16 10 -6 0
-7 -4 -4 -10z"/>
<path d="M655 8490 c3 -5 11 -10 16 -10 6 0 7 5 4 10 -3 6 -11 10 -16 10 -6 0
-7 -4 -4 -10z"/>
<path d="M1558 8493 c6 -3 10 -8 8 -11 -2 -4 7 -7 20 -7 39 0 35 20 -5 21 -20
1 -30 0 -23 -3z"/>
<path d="M325 8480 c3 -5 8 -10 11 -10 2 0 4 5 4 10 0 6 -5 10 -11 10 -5 0 -7
-4 -4 -10z"/>
<path d="M430 8486 c0 -2 7 -7 16 -10 8 -3 12 -2 9 4 -6 10 -25 14 -25 6z"/>
<path d="M565 8480 c3 -5 14 -10 23 -10 15 0 15 2 2 10 -20 13 -33 13 -25 0z"/>
<path d="M705 8483 c11 -11 126 -36 132 -29 3 2 -22 10 -53 16 -32 7 -65 15
-74 18 -10 3 -12 2 -5 -5z"/>
<path d="M1070 8486 c0 -2 8 -10 18 -17 15 -13 16 -12 3 4 -13 16 -21 21 -21
13z"/>
<path d="M1230 8486 c0 -2 8 -10 18 -17 15 -13 16 -12 3 4 -13 16 -21 21 -21
13z"/>
<path d="M1520 8486 c0 -2 7 -7 16 -10 8 -3 12 -2 9 4 -6 10 -25 14 -25 6z"/>
<path d="M1695 8459 c92 -46 138 -97 156 -178 9 -40 -9 -95 -47 -149 -27 -37
-27 -37 -2 -11 86 86 80 215 -13 293 -36 31 -122 76 -141 75 -7 0 14 -13 47
-30z"/>
<path d="M30 8470 c8 -5 20 -10 25 -10 6 0 3 5 -5 10 -8 5 -19 10 -25 10 -5 0
-3 -5 5 -10z"/>
<path d="M150 8470 c0 -8 60 -23 67 -17 1 2 -13 8 -32 14 -19 6 -35 8 -35 3z"/>
<path d="M255 8472 c6 -5 24 -13 40 -16 19 -5 26 -4 20 2 -5 5 -23 13 -40 16
-19 5 -26 4 -20 -2z"/>
<path d="M370 8470 c0 -6 7 -10 15 -10 8 0 15 2 15 4 0 2 -7 6 -15 10 -8 3
-15 1 -15 -4z"/>
<path d="M487 8471 c30 -13 123 -30 118 -21 -3 4 -24 10 -47 14 -24 4 -54 9
-68 12 -24 4 -24 4 -3 -5z"/>
<path d="M615 8470 c3 -5 8 -10 11 -10 2 0 4 5 4 10 0 6 -5 10 -11 10 -5 0 -7
-4 -4 -10z"/>
<path d="M1284 8463 c2 -9 8 -19 14 -21 7 -2 10 -7 7 -12 -3 -5 12 -18 32 -31
166 -99 180 -247 36 -379 -23 -22 -39 -40 -34 -40 4 0 16 9 26 20 21 23 44 28
25 5 -16 -19 -3 -20 16 -1 10 11 11 15 1 19 -8 3 -3 14 15 33 32 34 67 109 68
143 0 75 -56 160 -133 201 -27 15 -43 29 -40 37 8 20 33 16 27 -4 -5 -14 -4
-15 4 -4 12 16 41 8 97 -27 92 -57 130 -117 123 -193 -3 -27 -1 -46 4 -43 4 3
8 27 8 53 0 96 -70 178 -190 222 -36 13 -57 26 -54 33 3 6 -1 3 -9 -6 -15 -18
-43 -26 -32 -9 3 5 1 12 -4 15 -5 4 -8 -2 -7 -11z"/>
<path d="M1620 8477 c0 -2 27 -21 60 -41 33 -20 71 -51 84 -69 29 -38 50 -110
40 -139 -4 -14 -2 -18 5 -14 30 19 -2 125 -52 179 -23 24 -137 94 -137 84z"/>
<path d="M75 8460 c3 -5 11 -10 16 -10 6 0 7 5 4 10 -3 6 -11 10 -16 10 -6 0
-7 -4 -4 -10z"/>
<path d="M415 8460 c3 -5 11 -10 16 -10 6 0 7 5 4 10 -3 6 -11 10 -16 10 -6 0
-7 -4 -4 -10z"/>
<path d="M655 8460 c11 -5 27 -9 35 -9 13 -1 13 0 0 9 -8 5 -24 9 -35 9 -20 0
-20 0 0 -9z"/>
<path d="M1130 8460 c-9 -6 -10 -10 -3 -10 6 0 15 5 18 10 8 12 4 12 -15 0z"/>
<path d="M1360 8466 c0 -2 9 -6 20 -9 11 -3 18 -1 14 4 -5 9 -34 13 -34 5z"/>
<path d="M1421 8461 c-11 -7 1 -17 46 -39 109 -56 168 -150 146 -233 -6 -21
-7 -39 -3 -39 11 0 20 38 20 80 -1 77 -62 157 -156 202 -23 12 -41 25 -38 30
7 10 3 10 -15 -1z"/>
<path d="M1834 8451 c21 -23 26 -26 26 -11 0 5 -10 15 -22 21 -23 12 -23 12
-4 -10z"/>
<path d="M8 8448 c5 -5 16 -8 23 -6 8 3 3 7 -10 11 -17 4 -21 3 -13 -5z"/>
<path d="M110 8456 c0 -2 7 -7 16 -10 8 -3 12 -2 9 4 -6 10 -25 14 -25 6z"/>
<path d="M222 8444 c-9 -10 -4 -11 26 -7 47 7 49 10 14 15 -16 2 -34 -2 -40
-8z"/>
<path d="M340 8450 c8 -5 20 -10 25 -10 6 0 3 5 -5 10 -8 5 -19 10 -25 10 -5
0 -3 -5 5 -10z"/>
<path d="M455 8450 c3 -5 11 -10 16 -10 6 0 7 5 4 10 -3 6 -11 10 -16 10 -6 0
-7 -4 -4 -10z"/>
<path d="M720 8450 c20 -13 33 -13 25 0 -3 6 -14 10 -23 10 -15 0 -15 -2 -2
-10z"/>
<path d="M860 8450 c8 -5 20 -10 25 -10 6 0 3 5 -5 10 -8 5 -19 10 -25 10 -5
0 -3 -5 5 -10z"/>
<path d="M1213 8441 c-1 -10 10 -21 28 -28 16 -6 29 -7 29 -2 0 5 -5 9 -11 9
-5 0 -8 4 -5 9 4 5 -4 7 -16 3 -14 -3 -19 -1 -14 6 3 6 3 13 -2 16 -4 2 -8 -3
-9 -13z"/>
<path d="M1620 8441 c14 -11 28 -21 33 -21 21 0 92 -94 105 -140 8 -26 10 -29
11 -12 2 53 -65 139 -134 173 l-40 20 25 -20z"/>
<path d="M50 8440 c0 -5 7 -10 16 -10 8 0 12 5 9 10 -3 6 -10 10 -16 10 -5 0
-9 -4 -9 -10z"/>
<path d="M170 8440 c8 -5 20 -10 25 -10 6 0 3 5 -5 10 -8 5 -19 10 -25 10 -5
0 -3 -5 5 -10z"/>
<path d="M390 8440 c8 -5 20 -10 25 -10 6 0 3 5 -5 10 -8 5 -19 10 -25 10 -5
0 -3 -5 5 -10z"/>
<path d="M510 8440 c8 -5 20 -10 25 -10 6 0 3 5 -5 10 -8 5 -19 10 -25 10 -5
0 -3 -5 5 -10z"/>
<path d="M635 8440 c3 -5 14 -10 23 -10 15 0 15 2 2 10 -20 13 -33 13 -25 0z"/>
<path d="M760 8446 c0 -2 7 -7 16 -10 8 -3 12 -2 9 4 -6 10 -25 14 -25 6z"/>
<path d="M910 8441 c8 -5 33 -11 55 -15 25 -3 33 -3 20 3 -29 12 -93 22 -75
12z"/>
<path d="M1520 8429 c19 -12 44 -29 54 -38 16 -13 18 -13 14 -1 -2 8 -22 25
-44 37 -50 29 -71 30 -24 2z"/>
<path d="M95 8430 c3 -5 18 -10 32 -10 32 0 28 5 -10 14 -19 4 -26 3 -22 -4z"/>
<path d="M438 8433 c6 -2 10 -9 7 -14 -4 -5 1 -6 10 -2 13 5 14 7 3 14 -7 5
-17 8 -23 8 -5 0 -4 -3 3 -6z"/>
<path d="M680 8436 c0 -2 7 -7 16 -10 8 -3 12 -2 9 4 -6 10 -25 14 -25 6z"/>
<path d="M820 8430 c8 -5 22 -10 30 -10 13 0 13 1 0 10 -8 5 -22 10 -30 10
-13 0 -13 -1 0 -10z"/>
<path d="M167 8419 c7 -7 15 -10 18 -7 3 3 -2 9 -12 12 -14 6 -15 5 -6 -5z"/>
<path d="M488 8423 c7 -3 16 -2 19 1 4 3 -2 6 -13 5 -11 0 -14 -3 -6 -6z"/>
<path d="M580 8426 c0 -2 13 -6 29 -8 17 -2 28 -1 25 4 -5 8 -54 12 -54 4z"/>
<path d="M728 8423 c7 -3 16 -2 19 1 4 3 -2 6 -13 5 -11 0 -14 -3 -6 -6z"/>
<path d="M880 8420 c8 -5 20 -10 25 -10 6 0 3 5 -5 10 -8 5 -19 10 -25 10 -5
0 -3 -5 5 -10z"/>
<path d="M1015 8420 c2 -4 17 -10 32 -13 16 -3 37 -9 48 -13 14 -5 17 -4 10 4
-12 13 -97 34 -90 22z"/>
<path d="M1870 8426 c0 -2 7 -9 15 -16 9 -7 15 -8 15 -2 0 5 -7 12 -15 16 -8
3 -15 4 -15 2z"/>
<path d="M210 8410 c8 -5 24 -9 35 -9 20 0 20 0 0 9 -11 5 -27 9 -35 9 -13 1
-13 0 0 -9z"/>
<path d="M557 8409 c7 -7 15 -10 18 -7 3 3 -2 9 -12 12 -14 6 -15 5 -6 -5z"/>
<path d="M807 8409 c7 -7 15 -10 18 -7 3 3 -2 9 -12 12 -14 6 -15 5 -6 -5z"/>
<path d="M930 8410 c20 -13 33 -13 25 0 -3 6 -14 10 -23 10 -15 0 -15 -2 -2
-10z"/>
<path d="M1380 8413 c0 -5 18 -19 40 -33 23 -14 53 -43 68 -64 22 -33 27 -50
27 -103 0 -34 3 -63 8 -63 17 0 10 105 -10 147 -21 46 -133 143 -133 116z"/>
<path d="M289 8397 c5 -5 19 -7 32 -5 20 3 19 5 -9 9 -20 3 -29 2 -23 -4z"/>
<path d="M352 8398 c3 -7 12 -14 22 -14 13 -2 13 -1 1 3 -8 2 -13 9 -10 14 4
5 1 9 -5 9 -7 0 -10 -6 -8 -12z"/>
<path d="M730 8400 c8 -5 20 -10 25 -10 6 0 3 5 -5 10 -8 5 -19 10 -25 10 -5
0 -3 -5 5 -10z"/>
<path d="M840 8406 c0 -2 9 -6 20 -9 11 -3 18 -1 14 4 -5 9 -34 13 -34 5z"/>
<path d="M975 8400 c3 -5 11 -10 16 -10 6 0 7 5 4 10 -3 6 -11 10 -16 10 -6 0
-7 -4 -4 -10z"/>
<path d="M910 8390 c8 -5 20 -10 25 -10 6 0 3 5 -5 10 -8 5 -19 10 -25 10 -5
0 -3 -5 5 -10z"/>
<path d="M1015 8393 c11 -11 108 -48 114 -44 2 2 8 -3 13 -11 8 -10 9 -10 5 2
-2 8 -10 14 -16 13 -6 -2 -11 1 -11 5 0 5 -18 14 -41 21 -23 7 -48 15 -58 18
-10 4 -13 3 -6 -4z"/>
<path d="M1120 8390 c0 -4 9 -10 20 -13 11 -3 20 -2 20 3 0 4 -9 10 -20 13
-11 3 -20 2 -20 -3z"/>
<path d="M1301 8393 c-1 -6 14 -20 32 -32 70 -43 106 -129 86 -203 -6 -24 -10
-45 -9 -47 1 -2 -2 -7 -7 -10 -16 -12 -74 -91 -66 -91 9 1 77 86 79 98 0 4 6
20 12 35 17 40 14 86 -7 132 -21 44 -76 105 -96 105 -7 0 -16 6 -18 13 -4 8
-6 8 -6 0z"/>
<path d="M10 8380 c0 -6 11 -10 24 -10 13 0 33 -3 43 -6 12 -5 15 -4 8 3 -14
14 -75 25 -75 13z"/>
<path d="M455 8379 l-30 -8 30 2 c17 1 36 -2 43 -7 7 -4 15 -6 17 -4 11 11
-34 23 -60 17z"/>
<path d="M840 8381 c24 -13 77 -24 65 -13 -5 5 -26 12 -45 16 -21 3 -29 2 -20
-3z"/>
<path d="M950 8379 c0 -5 8 -9 18 -9 9 0 41 -11 70 -25 28 -13 52 -20 52 -16
0 5 -19 17 -42 26 -66 27 -98 35 -98 24z"/>
<path d="M1600 8387 c0 -3 14 -29 32 -57 48 -77 43 -143 -18 -227 -9 -13 -12
-23 -7 -23 15 0 61 80 68 120 9 50 -8 109 -45 155 -17 21 -30 35 -30 32z"/>
<path d="M1910 8387 c0 -2 8 -19 17 -38 10 -19 18 -55 17 -81 0 -26 4 -42 8
-35 13 21 8 70 -12 115 -16 35 -30 53 -30 39z"/>
<path d="M535 8370 c-3 -5 -1 -10 4 -10 6 0 11 5 11 10 0 6 -2 10 -4 10 -3 0
-8 -4 -11 -10z"/>
<path d="M1171 8372 c-1 -7 10 -17 23 -22 13 -5 27 -14 31 -19 3 -6 12 -11 18
-11 16 1 -32 40 -48 40 -7 0 -16 6 -18 13 -4 9 -6 9 -6 -1z"/>
<path d="M110 8360 c8 -5 24 -10 35 -10 17 0 17 2 5 10 -8 5 -24 10 -35 10
-17 0 -17 -2 -5 -10z"/>
<path d="M785 8360 c-3 -6 1 -7 9 -4 18 7 21 14 7 14 -6 0 -13 -4 -16 -10z"/>
<path d="M920 8360 c0 -5 5 -10 10 -10 6 0 10 5 10 10 0 6 -4 10 -10 10 -5 0
-10 -4 -10 -10z"/>
<path d="M175 8352 c6 -5 80 -19 165 -31 85 -12 166 -24 180 -27 19 -4 21 -3
10 4 -8 6 -80 20 -160 31 -80 12 -158 24 -175 27 -20 4 -27 3 -20 -4z"/>
<path d="M610 8350 c0 -6 7 -10 15 -10 8 0 15 2 15 4 0 2 -7 6 -15 10 -8 3
-15 1 -15 -4z"/>
<path d="M745 8350 c-3 -6 1 -7 9 -4 18 7 21 14 7 14 -6 0 -13 -4 -16 -10z"/>
<path d="M865 8350 c3 -5 8 -10 11 -10 2 0 4 5 4 10 0 6 -5 10 -11 10 -5 0 -7
-4 -4 -10z"/>
<path d="M950 8355 c0 -8 80 -46 80 -38 0 5 5 1 10 -7 6 -9 10 -10 10 -3 0 7
-21 21 -46 33 -50 21 -54 23 -54 15z"/>
<path d="M816 8334 c-8 -22 -4 -25 11 -9 7 8 9 16 4 19 -5 3 -12 -1 -15 -10z"/>
<path d="M894 8341 c3 -5 16 -11 28 -14 22 -6 22 -5 4 8 -22 17 -40 20 -32 6z"/>
<path d="M757 8333 c-13 -12 -7 -21 16 -27 13 -3 40 -17 61 -31 21 -14 36 -20
34 -13 -3 7 -29 25 -59 41 -30 15 -44 26 -31 23 12 -2 20 0 16 5 -6 11 -28 12
-37 2z"/>
<path d="M1160 8334 c0 -5 13 -21 28 -34 15 -14 35 -36 45 -49 9 -14 19 -22
22 -19 3 2 -4 15 -14 27 -11 13 -21 26 -23 29 -7 15 -58 55 -58 46z"/>
<path d="M890 8311 c67 -33 97 -55 117 -85 29 -45 46 -102 41 -142 -2 -19 0
-34 4 -34 4 0 8 22 8 48 0 77 -40 146 -113 193 -33 22 -67 39 -76 38 -9 0 0
-8 19 -18z"/>
<path d="M17 8310 c12 -5 116 -23 230 -40 384 -57 451 -77 517 -150 80 -89 70
-179 -40 -359 -36 -59 -74 -136 -85 -172 -22 -67 -38 -239 -23 -239 5 0 9 33
10 73 1 129 19 178 138 382 25 44 51 96 56 115 32 115 -17 214 -133 269 -67
31 -142 48 -362 81 -77 11 -178 27 -225 35 -95 17 -115 18 -83 5z"/>
<path d="M830 8315 c0 -6 56 -35 67 -35 4 0 -5 9 -22 20 -29 19 -45 25 -45 15z"/>
<path d="M970 8311 c0 -6 5 -11 11 -11 7 0 18 -8 26 -17 9 -12 13 -13 11 -4
-5 19 -48 48 -48 32z"/>
<path d="M1143 8276 c30 -29 50 -59 60 -92 8 -27 15 -40 16 -29 1 34 -45 121
-77 143 -48 35 -48 26 1 -22z"/>
<path d="M1265 8300 c4 -8 13 -21 19 -29 6 -7 19 -34 28 -60 9 -25 17 -37 17
-26 1 28 -32 97 -54 115 -17 13 -18 13 -10 0z"/>
<path d="M560 8290 c8 -5 24 -9 35 -9 20 0 20 0 0 9 -11 5 -27 9 -35 9 -13 1
-13 0 0 -9z"/>
<path d="M1098 8255 c45 -51 61 -102 51 -160 -7 -41 -5 -54 8 -41 4 4 7 33 7
64 -1 62 -20 110 -62 155 -43 45 -47 30 -4 -18z"/>
<path d="M620 8282 c0 -4 21 -13 48 -20 26 -7 52 -13 57 -15 6 -1 23 -11 38
-21 15 -10 30 -16 33 -13 9 8 -58 44 -115 61 -63 19 -61 18 -61 8z"/>
<path d="M910 8276 c0 -4 12 -23 28 -40 15 -17 35 -43 44 -56 16 -24 16 -24
11 -2 -6 23 -82 114 -83 98z"/>
<path d="M1030 8272 c0 -12 19 -26 26 -19 2 2 -2 10 -11 17 -9 8 -15 8 -15 2z"/>
<path d="M33 8243 c4 -6 32 -13 64 -17 31 -4 68 -9 82 -13 15 -4 22 -2 18 4
-4 6 -32 13 -64 16 -32 4 -69 10 -82 13 -15 5 -22 3 -18 -3z"/>
<path d="M909 8208 c18 -27 34 -48 37 -48 9 0 -25 56 -46 75 -17 15 -14 8 9
-27z"/>
<path d="M1060 8233 c0 -5 10 -19 21 -33 l20 -25 -16 33 c-15 30 -25 41 -25
25z"/>
<path d="M1756 8214 c-4 -18 -21 -54 -38 -80 -25 -40 -26 -45 -8 -29 30 27 62
92 58 118 -3 18 -5 17 -12 -9z"/>
<path d="M225 8210 c28 -12 37 -12 30 0 -3 6 -16 10 -28 9 -21 0 -21 -1 -2 -9z"/>
<path d="M1255 8150 c0 -38 3 -66 8 -61 10 10 11 111 1 121 -5 5 -9 -20 -9
-60z"/>
<path d="M285 8200 c11 -5 29 -9 40 -9 20 0 20 0 0 9 -11 5 -29 9 -40 9 -20 0
-20 0 0 -9z"/>
<path d="M810 8203 c0 -13 29 -38 35 -31 3 3 -4 13 -15 23 -11 10 -20 13 -20
8z"/>
<path d="M1906 8162 c-24 -40 -25 -44 -6 -27 24 22 55 75 43 75 -5 0 -21 -22
-37 -48z"/>
<path d="M360 8191 c8 -5 57 -16 109 -25 52 -9 109 -23 127 -31 19 -8 34 -10
34 -5 0 12 -84 36 -190 55 -97 17 -100 17 -80 6z"/>
<path d="M1776 8160 c-14 -22 -22 -40 -16 -40 6 0 14 8 17 18 4 9 13 23 20 30
12 12 18 32 9 32 -2 0 -15 -18 -30 -40z"/>
<path d="M5 8180 c3 -5 11 -10 16 -10 6 0 7 5 4 10 -3 6 -11 10 -16 10 -6 0
-7 -4 -4 -10z"/>
<path d="M50 8172 c8 -5 38 -12 65 -15 29 -4 44 -3 35 2 -21 12 -119 24 -100
13z"/>
<path d="M1098 8135 c2 -19 6 -35 8 -35 2 0 4 16 4 35 0 19 -4 35 -8 35 -4 0
-6 -16 -4 -35z"/>
<path d="M180 8150 c8 -5 26 -9 40 -9 23 0 23 1 5 9 -11 5 -29 9 -40 9 -17 1
-17 -1 -5 -9z"/>
<path d="M861 8125 c14 -24 21 -52 21 -87 -1 -41 2 -49 9 -35 18 32 -14 157
-41 157 -5 0 0 -16 11 -35z"/>
<path d="M1309 8115 c-9 -25 -13 -45 -9 -45 10 0 33 66 28 80 -2 6 -10 -10
-19 -35z"/>
<path d="M253 8144 c5 -5 53 -16 107 -25 54 -10 108 -20 119 -24 12 -3 21 -2
21 3 0 4 -46 16 -102 26 -57 9 -114 19 -128 22 -14 3 -21 2 -17 -2z"/>
<path d="M940 8143 c0 -4 5 -15 10 -23 8 -13 10 -13 10 2 0 9 -4 20 -10 23 -5
3 -10 3 -10 -2z"/>
<path d="M995 8090 c0 -32 3 -56 8 -53 4 2 7 26 7 53 0 27 -3 51 -7 53 -5 3
-8 -21 -8 -53z"/>
<path d="M1546 8135 c-3 -8 -1 -15 3 -15 5 0 11 7 15 15 3 8 1 15 -3 15 -5 0
-11 -7 -15 -15z"/>
<path d="M1480 8095 c-13 -24 -31 -47 -39 -50 -14 -5 -14 -7 -1 -16 13 -8 13
-10 0 -19 -12 -7 -10 -9 7 -7 12 0 20 4 17 8 -2 4 10 19 28 33 18 14 28 26 22
26 -6 0 -19 -9 -29 -20 -29 -33 -39 -23 -13 13 33 42 51 77 41 77 -5 0 -19
-20 -33 -45z"/>
<path d="M1576 8113 c-12 -16 -14 -24 -6 -21 16 5 46 48 34 48 -5 0 -18 -12
-28 -27z"/>
<path d="M640 8120 c0 -5 5 -10 11 -10 10 0 47 -39 77 -82 7 -10 17 -37 21
-60 8 -39 9 -40 10 -11 1 17 -3 43 -8 56 -18 47 -111 137 -111 107z"/>
<path d="M1208 8110 c-7 -24 -3 -38 8 -28 3 4 4 17 2 30 l-3 23 -7 -25z"/>
<path d="M20 8111 c0 -4 24 -11 53 -15 28 -4 68 -9 87 -13 19 -3 32 -3 29 1
-3 3 -32 11 -65 16 -32 6 -69 13 -81 15 -13 3 -23 1 -23 -4z"/>
<path d="M1520 8095 c-7 -8 -8 -15 -2 -15 5 0 15 7 22 15 7 8 8 15 2 15 -5 0
-15 -7 -22 -15z"/>
<path d="M510 8095 c0 -3 20 -14 44 -25 24 -10 47 -23 50 -29 4 -6 15 -11 24
-11 10 0 -3 13 -28 29 -46 29 -90 47 -90 36z"/>
<path d="M952 8080 c0 -14 2 -19 5 -12 2 6 2 18 0 25 -3 6 -5 1 -5 -13z"/>
<path d="M1699 8069 c-19 -17 -25 -26 -14 -21 20 10 63 52 53 52 -3 0 -21 -14
-39 -31z"/>
<path d="M205 8082 c6 -5 46 -14 90 -21 44 -6 91 -14 105 -17 19 -4 21 -3 10
4 -13 9 -54 18 -180 38 -22 3 -31 2 -25 -4z"/>
<path d="M1750 8079 c0 -5 5 -7 10 -4 6 3 10 8 10 11 0 2 -4 4 -10 4 -5 0 -10
-5 -10 -11z"/>
<path d="M1650 8059 c-22 -18 -22 -19 -3 -10 12 6 25 16 28 21 9 15 3 12 -25
-11z"/>
<path d="M1090 8060 c0 -5 5 -10 10 -10 6 0 10 5 10 10 0 6 -4 10 -10 10 -5 0
-10 -4 -10 -10z"/>
<path d="M1186 8054 c-8 -22 -8 -24 6 -24 6 0 8 3 5 7 -4 3 -2 12 4 20 7 8 8
13 1 13 -5 0 -13 -7 -16 -16z"/>
<path d="M1225 8033 c-11 -21 -32 -48 -47 -61 -16 -13 -28 -29 -28 -35 0 -17
76 65 95 102 8 17 12 31 8 31 -5 0 -17 -17 -28 -37z"/>
<path d="M1 8045 c7 -6 202 -35 207 -30 5 5 -25 12 -108 25 -71 11 -106 13
-99 5z"/>
<path d="M435 8040 c3 -5 8 -10 11 -10 2 0 4 5 4 10 0 6 -5 10 -11 10 -5 0 -7
-4 -4 -10z"/>
<path d="M460 8036 c0 -2 20 -14 45 -26 24 -12 56 -35 69 -51 32 -38 43 -37
16 1 -23 32 -130 95 -130 76z"/>
<path d="M946 8023 c-6 -14 -5 -15 5 -6 7 7 10 15 7 18 -3 3 -9 -2 -12 -12z"/>
<path d="M1036 8023 c-6 -14 -5 -15 5 -6 7 7 10 15 7 18 -3 3 -9 -2 -12 -12z"/>
<path d="M1133 8028 c-19 -24 -24 -38 -15 -38 5 0 14 11 20 25 13 27 10 32 -5
13z"/>
<path d="M1260 8018 c-12 -22 -12 -22 6 -6 10 10 15 20 12 24 -4 3 -12 -5 -18
-18z"/>
<path d="M1503 8033 c-17 -6 -17 -20 0 -20 8 0 14 6 14 14 0 7 -1 13 -1 12 -1
0 -7 -3 -13 -6z"/>
<path d="M223 8014 c3 -3 38 -12 78 -20 39 -7 81 -16 93 -20 14 -4 18 -3 11 4
-5 5 -45 17 -89 26 -85 17 -103 19 -93 10z"/>
<path d="M640 8018 c0 -4 9 -22 20 -41 11 -18 21 -51 22 -73 1 -38 -27 -144
-42 -154 -25 -18 -114 -187 -125 -237 -11 -54 2 -37 25 32 12 36 44 99 71 140
77 119 98 185 79 254 -9 34 -49 97 -50 79z"/>
<path d="M965 7970 c-14 -27 -21 -50 -16 -50 5 0 11 6 14 13 3 6 12 29 21 50
23 54 11 46 -19 -13z"/>
<path d="M1165 8010 c-3 -5 -1 -10 4 -10 6 0 11 5 11 10 0 6 -2 10 -4 10 -3 0
-8 -4 -11 -10z"/>
<path d="M1066 7995 c-3 -8 -1 -15 3 -15 5 0 11 7 15 15 3 8 1 15 -3 15 -5 0
-11 -7 -15 -15z"/>
<path d="M937 7993 c-4 -3 -7 -11 -7 -17 0 -6 5 -5 12 2 6 6 9 14 7 17 -3 3
-9 2 -12 -2z"/>
<path d="M4 7982 c3 -5 29 -12 57 -16 29 -4 66 -9 83 -12 22 -4 27 -3 16 4 -8
5 -40 13 -70 17 -30 3 -63 9 -74 12 -11 3 -16 1 -12 -5z"/>
<path d="M1142 7978 c-7 -7 -12 -16 -12 -20 0 -4 -18 -24 -40 -44 -22 -20 -40
-41 -40 -47 0 -6 11 0 25 13 14 13 25 21 25 19 0 -3 -14 -18 -32 -35 -17 -16
-28 -23 -24 -16 4 6 2 12 -4 12 -7 0 -10 7 -6 18 5 15 4 15 -7 2 -24 -29 -57
-53 -57 -42 0 6 10 21 23 34 39 39 60 68 51 68 -5 0 -25 -20 -44 -45 -19 -25
-47 -59 -62 -77 -16 -17 -28 -36 -28 -42 0 -6 13 5 30 24 16 20 29 29 30 21 0
-10 8 -7 27 10 23 21 25 22 19 4 -6 -16 -5 -17 5 -8 9 9 18 9 33 1 12 -6 18
-7 14 -3 -10 11 11 37 23 29 5 -3 9 -2 8 3 -4 22 2 35 15 30 9 -4 13 2 11 16
-1 12 9 37 22 55 23 31 20 45 -5 20z m-22 -68 c0 -5 -5 -10 -11 -10 -5 0 -7 5
-4 10 3 6 8 10 11 10 2 0 4 -4 4 -10z"/>
<path d="M420 7971 c0 -5 13 -14 29 -21 33 -13 71 -52 95 -95 15 -26 16 -27
10 -5 -3 14 -12 35 -20 47 -24 37 -114 96 -114 74z"/>
<path d="M873 7960 c-8 -29 -78 -165 -93 -180 -18 -18 -31 -40 -24 -40 25 0
145 222 129 238 -3 4 -9 -5 -12 -18z"/>
<path d="M1010 7971 c0 -5 -20 -36 -45 -70 -25 -34 -41 -61 -35 -61 5 0 15 10
21 22 6 12 19 30 28 39 26 29 53 79 42 79 -6 0 -11 -4 -11 -9z"/>
<path d="M1095 7970 c-3 -5 -2 -10 4 -10 5 0 13 5 16 10 3 6 2 10 -4 10 -5 0
-13 -4 -16 -10z"/>
<path d="M1285 7970 c-8 -13 15 -24 27 -12 6 6 4 11 -6 15 -8 3 -18 2 -21 -3z"/>
<path d="M1050 7959 c0 -5 5 -7 10 -4 6 3 10 8 10 11 0 2 -4 4 -10 4 -5 0 -10
-5 -10 -11z"/>
<path d="M1414 7939 c-65 -41 -121 -96 -145 -141 -20 -39 -39 -136 -34 -178 2
-14 6 -50 10 -80 8 -68 35 -193 41 -187 3 3 -5 51 -16 108 -29 140 -25 264 10
332 25 51 61 90 46 52 -4 -11 -4 -16 0 -13 4 4 15 3 25 -2 12 -7 20 -6 25 2 4
6 3 8 -4 4 -6 -3 -18 1 -27 10 -20 21 -10 33 66 81 52 31 67 43 56 43 -2 0
-25 -14 -53 -31z"/>
<path d="M1555 7960 c-3 -6 1 -7 9 -4 18 7 21 14 7 14 -6 0 -13 -4 -16 -10z"/>
<path d="M1871 7958 c-63 -11 -218 -89 -273 -137 -82 -73 -106 -165 -77 -291
14 -59 17 -86 18 -137 1 -24 6 -43 11 -43 6 0 8 11 4 25 -11 44 15 121 56 168
64 73 259 159 322 144 60 -15 112 -78 198 -240 29 -54 54 -96 57 -94 2 3 -22
51 -53 108 -138 255 -191 281 -380 190 -103 -49 -153 -87 -179 -135 -11 -20
-23 -36 -26 -36 -10 0 -22 57 -15 69 4 5 2 12 -4 16 -17 10 -11 117 9 160 27
60 101 121 208 173 75 36 110 47 157 50 57 3 64 1 100 -29 57 -48 100 -120
210 -357 54 -117 102 -212 106 -212 4 0 -17 48 -45 108 -28 59 -73 154 -99
212 -51 114 -126 232 -167 262 -35 26 -85 36 -138 26z"/>
<path d="M184 7951 c3 -4 27 -11 54 -14 27 -3 74 -14 105 -25 32 -10 57 -15
57 -11 0 10 -80 34 -159 49 -65 12 -63 12 -57 1z"/>
<path d="M908 7930 c-9 -17 -13 -30 -8 -30 5 0 16 14 25 30 20 39 5 39 -17 0z"/>
<path d="M1330 7956 c0 -2 8 -10 18 -17 15 -13 16 -12 3 4 -13 16 -21 21 -21
13z"/>
<path d="M1067 7932 c-25 -27 -21 -36 5 -12 12 11 19 22 16 25 -2 3 -12 -3
-21 -13z"/>
<path d="M2 7915 c3 -3 66 -16 141 -29 75 -13 157 -34 182 -46 100 -48 116
-128 50 -246 -68 -121 -84 -158 -90 -204 -5 -43 -4 -42 13 15 10 33 41 101 69
150 74 129 80 182 27 245 -41 48 -97 71 -243 96 -143 25 -157 27 -149 19z"/>
<path d="M607 7900 c3 -11 10 -23 16 -27 7 -4 8 0 4 11 -4 10 -7 22 -7 27 0 5
-4 9 -9 9 -5 0 -7 -9 -4 -20z"/>
<path d="M751 7913 c0 -6 -4 -20 -7 -30 -5 -14 -4 -15 5 -7 7 7 11 20 8 30 -3
11 -5 14 -6 7z"/>
<path d="M925 7891 c-7 -24 -43 -56 -62 -56 -9 0 -31 -28 -51 -64 -20 -36 -30
-61 -24 -57 7 4 22 25 33 48 11 22 23 38 25 35 3 -3 -9 -32 -25 -66 -17 -34
-28 -61 -24 -61 5 0 18 22 30 48 22 47 53 103 64 112 20 18 59 80 51 80 -6 0
-13 -8 -17 -19z m-55 -70 c0 -6 -4 -13 -10 -16 -5 -3 -10 1 -10 9 0 9 5 16 10
16 6 0 10 -4 10 -9z"/>
<path d="M1250 7901 c0 -6 4 -12 8 -15 5 -3 9 1 9 9 0 8 -4 15 -9 15 -4 0 -8
-4 -8 -9z"/>
<path d="M410 7895 c0 -5 14 -23 31 -41 23 -24 33 -45 38 -85 7 -46 9 -50 15
-28 9 33 -13 88 -53 131 -17 18 -31 29 -31 23z"/>
<path d="M1866 7891 c-5 -7 6 -9 36 -5 39 6 49 2 91 -30 55 -42 70 -47 37 -11
-13 14 -29 25 -36 25 -7 0 -14 5 -16 11 -5 16 -103 24 -112 10z"/>
<path d="M1190 7869 c-8 -13 -17 -18 -28 -14 -9 3 -13 3 -10 -1 4 -4 -4 -26
-18 -50 -14 -24 -22 -44 -16 -44 5 0 15 13 22 29 6 16 21 38 32 48 17 15 16
10 -6 -32 -15 -27 -20 -41 -11 -30 9 11 24 19 33 17 14 -2 15 -1 2 7 -12 8
-12 13 -2 23 6 6 12 8 12 2 0 -5 9 -10 20 -11 11 -1 20 3 20 8 0 6 -4 7 -10 4
-14 -9 -12 8 3 25 6 8 2 6 -11 -5 l-23 -19 6 32 c6 37 1 41 -15 11z"/>
<path d="M1835 7880 c-3 -5 -1 -10 4 -10 6 0 11 5 11 10 0 6 -2 10 -4 10 -3 0
-8 -4 -11 -10z"/>
<path d="M1732 7840 c-87 -42 -165 -105 -188 -154 -14 -28 -14 -29 1 -11 57
74 168 153 266 187 8 3 11 8 8 12 -3 3 -42 -12 -87 -34z"/>
<path d="M865 7860 c-3 -5 -1 -10 4 -10 6 0 11 5 11 10 0 6 -2 10 -4 10 -3 0
-8 -4 -11 -10z"/>
<path d="M1257 7856 c-3 -8 -2 -18 3 -21 13 -8 20 9 11 24 -6 10 -10 9 -14 -3z"/>
<path d="M35 7840 c11 -5 29 -9 40 -9 20 0 20 0 0 9 -11 5 -29 9 -40 9 -20 0
-20 0 0 -9z"/>
<path d="M104 7833 c4 -4 33 -13 64 -19 31 -7 66 -16 77 -20 14 -5 17 -4 10 4
-5 6 -41 18 -78 26 -78 18 -83 19 -73 9z"/>
<path d="M617 7829 c-17 -61 -35 -102 -68 -155 -46 -72 -93 -173 -85 -181 3
-3 8 3 12 13 9 29 57 128 63 134 33 28 102 183 88 197 -4 3 -8 0 -10 -8z"/>
<path d="M708 7805 c-10 -19 -13 -35 -8 -35 6 0 10 5 10 11 0 6 7 17 15 25 16
16 20 34 8 34 -5 0 -16 -16 -25 -35z"/>
<path d="M1873 7827 c-29 -5 -53 -12 -53 -17 0 -5 14 -4 30 2 17 5 48 8 70 6
22 -2 40 -1 40 3 0 13 -35 15 -87 6z"/>
<path d="M890 7801 c-12 -17 -18 -31 -13 -31 11 1 46 50 40 56 -3 3 -15 -9
-27 -25z"/>
<path d="M1095 7780 c-14 -27 -22 -50 -18 -50 8 0 55 100 48 100 -3 0 -16 -22
-30 -50z"/>
<path d="M551 7804 c0 -11 3 -14 6 -6 3 7 2 16 -1 19 -3 4 -6 -2 -5 -13z"/>
<path d="M1970 7817 c0 -2 17 -22 38 -43 21 -22 46 -50 55 -63 9 -14 19 -23
21 -20 7 7 -65 100 -91 117 -13 8 -23 12 -23 9z"/>
<path d="M932 7766 c-17 -27 -29 -53 -25 -59 3 -5 12 5 19 22 14 34 29 42 21
11 -3 -11 -1 -20 4 -20 5 0 9 7 9 15 0 9 9 25 20 37 23 25 27 46 6 29 -11 -9
-15 -9 -18 1 -3 7 -19 -8 -36 -36z m30 2 c-7 -7 -12 -8 -12 -2 0 14 12 26 19
19 2 -3 -1 -11 -7 -17z"/>
<path d="M1235 7780 c-9 -16 -12 -30 -7 -30 4 0 13 14 19 30 6 17 10 30 7 30
-2 0 -10 -13 -19 -30z"/>
<path d="M1758 7786 c-27 -11 -48 -24 -48 -28 0 -4 21 2 48 14 56 27 56 27 51
32 -2 2 -25 -6 -51 -18z"/>
<path d="M2077 7758 c19 -29 47 -79 61 -110 14 -32 29 -58 34 -58 9 0 -49 120
-88 182 -13 21 -28 38 -33 38 -6 0 6 -24 26 -52z"/>
<path d="M270 7791 c0 -5 12 -16 26 -26 14 -9 34 -35 45 -58 10 -23 19 -34 19
-24 0 29 -26 70 -59 95 -17 12 -31 18 -31 13z"/>
<path d="M1206 7784 c-5 -14 -4 -15 9 -4 17 14 19 20 6 20 -5 0 -12 -7 -15
-16z"/>
<path d="M4 7781 c3 -5 27 -12 53 -15 102 -15 162 -38 193 -73 45 -51 41 -94
-19 -207 -51 -96 -70 -143 -53 -132 5 3 13 18 17 33 3 16 24 56 45 89 45 73
52 94 52 146 -1 45 -31 92 -72 113 -44 23 -225 61 -216 46z"/>
<path d="M1313 7773 c-3 -10 -8 -22 -11 -27 -3 -5 0 -6 5 -3 11 7 25 47 17 47
-3 0 -7 -8 -11 -17z"/>
<path d="M1395 7780 c-3 -5 -1 -10 4 -10 6 0 11 5 11 10 0 6 -2 10 -4 10 -3 0
-8 -4 -11 -10z"/>
<path d="M542 7751 c-6 -17 -7 -31 -3 -31 10 0 25 50 18 57 -3 2 -9 -10 -15
-26z"/>
<path d="M995 7770 c-3 -5 -1 -10 4 -10 6 0 11 5 11 10 0 6 -2 10 -4 10 -3 0
-8 -4 -11 -10z"/>
<path d="M1025 7770 c-3 -5 -1 -10 4 -10 6 0 11 5 11 10 0 6 -2 10 -4 10 -3 0
-8 -4 -11 -10z"/>
<path d="M1845 7756 c-61 -20 -175 -75 -175 -84 0 -5 30 6 67 25 96 48 167 67
203 54 17 -5 30 -6 30 -2 0 22 -67 25 -125 7z"/>
<path d="M674 7748 c-4 -7 -14 -23 -22 -35 -8 -13 -10 -23 -6 -23 5 0 19 16
32 35 12 19 18 35 13 35 -6 0 -13 -6 -17 -12z"/>
<path d="M847 7725 c-9 -19 -15 -35 -13 -35 2 0 13 16 25 35 11 19 17 35 13
35 -5 0 -16 -16 -25 -35z"/>
<path d="M871 7709 c-13 -28 -20 -53 -17 -56 3 -3 10 6 15 21 6 14 18 40 26
56 9 17 11 30 6 30 -4 0 -18 -23 -30 -51z"/>
<path d="M1167 7753 c-4 -3 -7 -11 -7 -17 0 -6 5 -5 12 2 6 6 9 14 7 17 -3 3
-9 2 -12 -2z"/>
<path d="M1658 7734 c-44 -28 -63 -54 -22 -30 43 26 68 45 63 50 -2 2 -21 -7
-41 -20z"/>
<path d="M977 7730 c-3 -11 -3 -20 -1 -20 2 0 8 9 14 20 6 11 7 20 2 20 -6 0
-12 -9 -15 -20z"/>
<path d="M1130 7739 c0 -5 5 -7 10 -4 6 3 10 8 10 11 0 2 -4 4 -10 4 -5 0 -10
-5 -10 -11z"/>
<path d="M1277 7743 c-4 -3 -7 -11 -7 -17 0 -6 5 -5 12 2 6 6 9 14 7 17 -3 3
-9 2 -12 -2z"/>
<path d="M1100 7729 c0 -5 5 -7 10 -4 6 3 10 8 10 11 0 2 -4 4 -10 4 -5 0 -10
-5 -10 -11z"/>
<path d="M1216 7723 c-6 -14 -5 -15 5 -6 7 7 10 15 7 18 -3 3 -9 -2 -12 -12z"/>
<path d="M2024 7685 c25 -30 71 -104 103 -165 32 -60 61 -110 65 -110 4 0 -17
46 -47 103 -58 110 -138 227 -155 227 -6 0 10 -25 34 -55z"/>
<path d="M732 7705 c-6 -14 -8 -25 -3 -25 4 0 13 11 19 25 6 14 8 25 3 25 -4
0 -13 -11 -19 -25z"/>
<path d="M1186 7715 c-3 -9 -5 -44 -4 -78 l1 -62 7 75 c6 81 6 90 -4 65z"/>
<path d="M1323 7715 c-3 -9 -3 -18 -1 -21 3 -3 8 4 11 16 6 23 -1 27 -10 5z"/>
<path d="M15 7710 c28 -12 37 -12 30 0 -3 6 -16 10 -28 9 -21 0 -21 -1 -2 -9z"/>
<path d="M1066 7705 c-3 -9 -6 -31 -5 -48 1 -28 2 -26 10 12 9 46 6 65 -5 36z"/>
<path d="M1127 7706 c-4 -10 -7 -25 -6 -34 0 -11 4 -9 10 7 5 13 8 29 6 35 -2
5 -6 2 -10 -8z"/>
<path d="M1157 7713 c-4 -3 -7 -11 -7 -17 0 -6 5 -5 12 2 6 6 9 14 7 17 -3 3
-9 2 -12 -2z"/>
<path d="M1296 7705 c-9 -26 -7 -32 5 -12 6 10 9 21 6 23 -2 3 -7 -2 -11 -11z"/>
<path d="M70 7700 c20 -13 33 -13 25 0 -3 6 -14 10 -23 10 -15 0 -15 -2 -2
-10z"/>
<path d="M466 7684 c-4 -15 -18 -43 -32 -63 -13 -19 -24 -41 -24 -47 0 -7 -6
-15 -12 -17 -8 -4 -9 -6 -2 -6 7 -1 28 26 47 58 40 67 53 101 39 101 -6 0 -13
-12 -16 -26z"/>
<path d="M523 7694 c-4 -10 -13 -25 -20 -32 -12 -13 -18 -32 -9 -32 9 0 48 71
42 77 -3 3 -9 -3 -13 -13z"/>
<path d="M1096 7695 c-3 -9 -6 -22 -5 -28 0 -7 5 -1 10 12 5 13 8 26 5 28 -2
2 -6 -3 -10 -12z"/>
<path d="M110 7691 c0 -5 11 -12 24 -15 13 -3 34 -17 47 -31 13 -13 28 -25 33
-25 15 0 -36 50 -66 66 -32 16 -38 17 -38 5z"/>
<path d="M761 7668 c-14 -39 -5 -51 9 -13 6 15 13 32 16 36 3 5 1 9 -4 9 -6 0
-15 -14 -21 -32z"/>
<path d="M960 7688 c0 -7 -3 -24 -7 -38 -9 -36 6 -19 17 19 5 19 5 31 -1 31
-5 0 -9 -6 -9 -12z"/>
<path d="M890 7681 c0 -5 -3 -17 -7 -27 -4 -11 -3 -15 4 -11 14 9 24 47 12 47
-5 0 -9 -4 -9 -9z"/>
<path d="M926 7673 c-6 -14 -5 -15 5 -6 7 7 10 15 7 18 -3 3 -9 -2 -12 -12z"/>
<path d="M990 7675 c0 -8 2 -15 4 -15 2 0 6 7 10 15 3 8 1 15 -4 15 -6 0 -10
-7 -10 -15z"/>
<path d="M622 7660 c-7 -11 -8 -20 -3 -20 9 0 24 30 18 36 -1 2 -8 -6 -15 -16z"/>
<path d="M820 7661 c-12 -24 -13 -34 -1 -27 9 6 22 46 15 46 -2 0 -8 -9 -14
-19z"/>
<path d="M1151 7664 c0 -11 3 -14 6 -6 3 7 2 16 -1 19 -3 4 -6 -2 -5 -13z"/>
<path d="M1322 7650 c0 -19 2 -27 5 -17 2 9 2 25 0 35 -3 9 -5 1 -5 -18z"/>
<path d="M2103 7640 c12 -22 26 -40 30 -40 5 0 -2 18 -14 40 -13 22 -26 40
-30 40 -4 0 2 -18 14 -40z"/>
<path d="M1291 7627 c2 -26 6 -53 11 -59 5 -7 6 12 2 42 -8 69 -16 80 -13 17z"/>
<path d="M1613 7633 c-39 -36 -79 -100 -70 -109 3 -3 16 15 31 40 14 24 40 56
58 70 18 14 30 27 27 30 -3 4 -24 -11 -46 -31z"/>
<path d="M785 7650 c-3 -5 -1 -10 4 -10 6 0 11 5 11 10 0 6 -2 10 -4 10 -3 0
-8 -4 -11 -10z"/>
<path d="M1562 7647 c-18 -21 -33 -67 -22 -67 6 0 10 6 10 14 0 7 9 25 21 40
20 26 12 38 -9 13z"/>
<path d="M15 7640 c28 -12 37 -12 30 0 -3 6 -16 10 -28 9 -21 0 -21 -1 -2 -9z"/>
<path d="M705 7640 c-3 -5 -1 -10 4 -10 6 0 11 5 11 10 0 6 -2 10 -4 10 -3 0
-8 -4 -11 -10z"/>
<path d="M916 7634 c-4 -9 -4 -19 -1 -22 2 -3 7 3 11 12 4 9 4 19 1 22 -2 3
-7 -3 -11 -12z"/>
<path d="M986 7628 c-7 -27 -8 -83 -2 -77 7 6 19 99 13 99 -3 0 -7 -10 -11
-22z"/>
<path d="M1122 7625 c0 -16 2 -22 5 -12 2 9 2 23 0 30 -3 6 -5 -1 -5 -18z"/>
<path d="M1212 7625 c0 -16 2 -22 5 -12 2 9 2 23 0 30 -3 6 -5 -1 -5 -18z"/>
<path d="M1382 7630 c0 -14 2 -19 5 -12 2 6 2 18 0 25 -3 6 -5 1 -5 -13z"/>
<path d="M60 7630 c0 -5 5 -10 11 -10 5 0 7 5 4 10 -3 6 -8 10 -11 10 -2 0 -4
-4 -4 -10z"/>
<path d="M344 7624 c-4 -10 -9 -22 -11 -26 -2 -5 0 -8 6 -8 11 0 26 39 17 47
-3 3 -9 -3 -12 -13z"/>
<path d="M847 7633 c-4 -3 -7 -11 -7 -17 0 -6 5 -5 12 2 6 6 9 14 7 17 -3 3
-9 2 -12 -2z"/>
<path d="M1153 7605 c0 -22 2 -30 4 -17 2 12 2 30 0 40 -3 9 -5 -1 -4 -23z"/>
<path d="M1868 7633 c-50 -8 -29 -18 28 -15 56 4 56 4 103 -46 25 -27 68 -88
96 -136 27 -47 53 -86 57 -86 10 0 -87 165 -126 214 -31 38 -93 77 -118 75 -7
-1 -25 -4 -40 -6z"/>
<path d="M90 7621 c0 -12 39 -35 46 -28 3 2 -7 12 -21 21 -14 9 -25 12 -25 7z"/>
<path d="M597 7610 c-3 -11 -3 -20 -1 -20 2 0 8 9 14 20 6 11 7 20 2 20 -6 0
-12 -9 -15 -20z"/>
<path d="M777 7623 c-3 -4 -7 -35 -11 -68 l-5 -60 14 65 c12 62 13 82 2 63z"/>
<path d="M876 7615 c-3 -9 -5 -42 -5 -73 l2 -57 7 70 c8 73 7 87 -4 60z"/>
<path d="M1092 7605 c0 -16 2 -22 5 -12 2 9 2 23 0 30 -3 6 -5 -1 -5 -18z"/>
<path d="M1260 7620 c0 -5 5 -10 11 -10 5 0 7 5 4 10 -3 6 -8 10 -11 10 -2 0
-4 -4 -4 -10z"/>
<path d="M462 7600 c-7 -11 -9 -20 -4 -20 4 0 13 9 20 20 7 11 9 20 4 20 -4 0
-13 -9 -20 -20z"/>
<path d="M690 7609 c0 -5 5 -7 10 -4 6 3 10 8 10 11 0 2 -4 4 -10 4 -5 0 -10
-5 -10 -11z"/>
<path d="M730 7536 c-10 -63 -10 -99 -2 -138 l10 -53 -2 57 c-3 55 8 164 20
201 3 9 1 17 -4 17 -6 0 -16 -38 -22 -84z"/>
<path d="M807 7614 c-4 -4 -7 -14 -7 -23 0 -11 3 -12 11 -4 6 6 10 16 7 23 -2
6 -7 8 -11 4z"/>
<path d="M946 7598 c-8 -33 -7 -58 2 -58 5 0 9 18 10 40 2 45 -3 51 -12 18z"/>
<path d="M1065 7522 c2 -56 9 -110 15 -120 9 -13 10 -10 5 16 -4 18 -11 72
-15 120 l-9 87 4 -103z"/>
<path d="M1770 7598 c-25 -12 -40 -23 -33 -25 11 -4 93 33 93 42 0 8 -13 4
-60 -17z"/>
<path d="M215 7570 c0 -21 3 -36 7 -34 5 3 8 18 8 34 0 16 -3 31 -8 34 -4 2
-7 -13 -7 -34z"/>
<path d="M1320 7600 c0 -5 5 -10 11 -10 5 0 7 5 4 10 -3 6 -8 10 -11 10 -2 0
-4 -4 -4 -10z"/>
<path d="M836 7585 c-3 -9 -5 -49 -4 -88 l1 -72 7 85 c7 89 7 101 -4 75z"/>
<path d="M912 7580 c0 -14 2 -19 5 -12 2 6 2 18 0 25 -3 6 -5 1 -5 -13z"/>
<path d="M1271 7584 c0 -11 3 -14 6 -6 3 7 2 16 -1 19 -3 4 -6 -2 -5 -13z"/>
<path d="M1381 7585 c0 -11 4 -27 9 -35 9 -13 10 -13 9 0 0 8 -4 24 -9 35 -9
20 -9 20 -9 0z"/>
<path d="M687 7583 c-4 -3 -7 -11 -7 -17 0 -6 5 -5 12 2 6 6 9 14 7 17 -3 3
-9 2 -12 -2z"/>
<path d="M1216 7530 c3 -36 10 -69 15 -75 9 -9 8 1 -11 95 -8 40 -9 38 -4 -20z"/>
<path d="M2142 7565 c6 -14 15 -25 19 -25 5 0 3 11 -3 25 -6 14 -15 25 -19 25
-5 0 -3 -11 3 -25z"/>
<path d="M27 7561 c17 -11 36 -28 41 -38 6 -10 13 -15 17 -12 10 10 -38 57
-65 64 -22 6 -21 4 7 -14z"/>
<path d="M138 7568 c7 -7 12 -23 13 -37 0 -15 3 -20 6 -13 7 19 -6 62 -19 62
-9 0 -9 -3 0 -12z"/>
<path d="M300 7533 c-14 -27 -30 -54 -37 -61 -7 -7 -13 -14 -13 -15 0 -1 -4
-17 -9 -35 -6 -20 -6 -32 0 -32 5 0 9 6 9 13 0 14 22 58 64 130 15 26 24 47
19 47 -4 0 -19 -21 -33 -47z"/>
<path d="M571 7528 c-16 -83 -19 -141 -11 -163 6 -13 9 1 9 45 1 36 7 89 15
118 7 29 10 52 5 52 -4 0 -12 -24 -18 -52z"/>
<path d="M1331 7564 c0 -11 3 -14 6 -6 3 7 2 16 -1 19 -3 4 -6 -2 -5 -13z"/>
<path d="M422 7523 c-20 -49 -39 -133 -27 -121 4 3 11 25 16 48 5 23 18 60 28
81 11 21 16 39 11 39 -4 0 -17 -21 -28 -47z"/>
<path d="M1091 7554 c0 -11 3 -14 6 -6 3 7 2 16 -1 19 -3 4 -6 -2 -5 -13z"/>
<path d="M1126 7515 c3 -33 10 -67 15 -75 9 -16 2 42 -12 100 -6 26 -7 19 -3
-25z"/>
<path d="M1180 7549 c0 -13 5 -31 10 -39 7 -11 8 -5 4 20 -8 43 -14 51 -14 19z"/>
<path d="M1843 7560 c-13 -5 -23 -11 -23 -14 0 -6 60 11 68 19 8 8 -20 5 -45
-5z"/>
<path d="M1937 7551 c42 -20 103 -87 144 -161 13 -22 26 -40 31 -40 10 0 -50
96 -94 153 -32 40 -75 67 -105 67 -10 0 1 -9 24 -19z"/>
<path d="M796 7544 c-8 -20 -6 -130 3 -169 4 -17 7 16 7 77 -1 60 -2 108 -2
108 -1 0 -5 -7 -8 -16z"/>
<path d="M1152 7550 c0 -8 4 -26 8 -40 6 -20 8 -21 8 -5 0 11 -3 29 -8 40 -5
12 -8 14 -8 5z"/>
<path d="M1271 7550 c0 -8 4 -22 9 -30 12 -18 12 -2 0 25 -6 13 -9 15 -9 5z"/>
<path d="M1665 7540 c-30 -20 -97 -91 -91 -97 2 -2 31 24 66 57 34 33 61 60
59 60 -2 0 -17 -9 -34 -20z"/>
<path d="M676 7535 c-3 -9 -5 -47 -4 -83 l1 -67 7 80 c7 84 7 97 -4 70z"/>
<path d="M912 7475 c0 -44 3 -91 7 -105 5 -14 6 18 4 70 -6 121 -11 139 -11
35z"/>
<path d="M1300 7540 c0 -8 5 -22 10 -30 9 -13 10 -13 10 0 0 8 -5 22 -10 30
-9 13 -10 13 -10 0z"/>
<path d="M1731 7510 c-70 -37 -141 -94 -141 -113 0 -4 17 8 38 27 20 20 69 52
107 72 79 41 80 42 74 48 -2 3 -38 -13 -78 -34z"/>
<path d="M981 7519 c0 -13 4 -33 9 -44 7 -15 8 -10 5 19 -4 43 -15 63 -14 25z"/>
<path d="M1330 7530 c0 -5 5 -10 11 -10 5 0 7 5 4 10 -3 6 -8 10 -11 10 -2 0
-4 -4 -4 -10z"/>
<path d="M2230 7460 c22 -44 42 -80 45 -80 3 0 -13 36 -35 80 -22 44 -42 80
-45 80 -3 0 13 -36 35 -80z"/>
<path d="M945 7520 c3 -5 8 -10 11 -10 2 0 4 5 4 10 0 6 -5 10 -11 10 -5 0 -7
-4 -4 -10z"/>
<path d="M1396 7517 c3 -10 9 -15 12 -12 3 3 0 11 -7 18 -10 9 -11 8 -5 -6z"/>
<path d="M2170 7508 c33 -67 45 -88 50 -88 4 0 -5 25 -19 55 -14 30 -30 55
-34 55 -4 0 -3 -10 3 -22z"/>
<path d="M186 7484 c-24 -51 -12 -55 14 -5 11 23 17 41 12 41 -5 0 -16 -16
-26 -36z"/>
<path d="M1346 7475 c4 -22 11 -44 16 -50 10 -11 2 34 -13 70 -6 13 -6 5 -3
-20z"/>
<path d="M1852 7494 c-28 -7 -78 -27 -111 -44 -58 -29 -136 -88 -128 -97 3 -2
19 9 36 25 50 45 179 105 237 110 48 4 54 2 92 -33 23 -20 51 -52 63 -71 11
-19 25 -34 30 -34 14 0 -75 114 -103 132 -37 24 -60 26 -116 12z"/>
<path d="M82 7475 c0 -16 2 -22 5 -12 2 9 2 23 0 30 -3 6 -5 -1 -5 -18z"/>
<path d="M135 7471 c-8 -17 -12 -31 -7 -31 10 0 35 50 28 57 -2 3 -12 -9 -21
-26z"/>
<path d="M356 7484 c-8 -21 -8 -24 3 -24 5 0 11 9 14 20 6 24 -8 27 -17 4z"/>
<path d="M952 7475 c0 -16 2 -22 5 -12 2 9 2 23 0 30 -3 6 -5 -1 -5 -18z"/>
<path d="M1101 7484 c0 -11 3 -14 6 -6 3 7 2 16 -1 19 -3 4 -6 -2 -5 -13z"/>
<path d="M1280 7488 c0 -9 5 -20 10 -23 13 -8 13 5 0 25 -8 13 -10 13 -10 -2z"/>
<path d="M5 7474 c11 -24 12 -61 2 -94 -4 -14 0 -10 9 9 16 35 12 85 -8 98 -8
4 -9 0 -3 -13z"/>
<path d="M761 7474 c0 -11 3 -14 6 -6 3 7 2 16 -1 19 -3 4 -6 -2 -5 -13z"/>
<path d="M1316 7465 c3 -16 11 -34 16 -40 6 -6 7 1 2 20 -3 17 -11 35 -16 40
-6 6 -7 -1 -2 -20z"/>
<path d="M1400 7481 c0 -5 5 -13 10 -16 6 -3 10 -2 10 4 0 5 -4 13 -10 16 -5
3 -10 2 -10 -4z"/>
<path d="M457 7473 c-4 -3 -7 -11 -7 -17 0 -6 5 -5 12 2 6 6 9 14 7 17 -3 3
-9 2 -12 -2z"/>
<path d="M1160 7475 c0 -5 5 -17 10 -25 5 -8 10 -10 10 -5 0 6 -5 17 -10 25
-5 8 -10 11 -10 5z"/>
<path d="M1190 7471 c0 -5 5 -13 10 -16 6 -3 10 -2 10 4 0 5 -4 13 -10 16 -5
3 -10 2 -10 -4z"/>
<path d="M507 7463 c-4 -3 -6 -31 -6 -62 l2 -56 7 60 c8 62 8 70 -3 58z"/>
<path d="M1107 7420 c3 -25 10 -52 14 -60 11 -19 0 69 -12 90 -4 8 -5 -5 -2
-30z"/>
<path d="M345 7438 c-2 -7 -6 -31 -9 -53 -6 -46 7 -20 17 33 6 31 1 45 -8 20z"/>
<path d="M762 7425 c0 -16 2 -22 5 -12 2 9 2 23 0 30 -3 6 -5 -1 -5 -18z"/>
<path d="M1416 7437 c3 -10 9 -15 12 -12 3 3 0 11 -7 18 -10 9 -11 8 -5 -6z"/>
<path d="M62 7415 c-6 -14 -8 -25 -3 -25 4 0 13 11 19 25 6 14 8 25 3 25 -4 0
-13 -11 -19 -25z"/>
<path d="M952 7420 c0 -14 4 -36 8 -50 8 -24 8 -24 8 5 0 17 -3 39 -8 50 -8
18 -9 18 -8 -5z"/>
<path d="M1204 7420 c3 -14 6 -35 6 -47 0 -13 4 -23 10 -23 11 0 2 57 -12 80
-7 11 -8 8 -4 -10z"/>
<path d="M1230 7433 c0 -4 5 -15 10 -23 8 -13 10 -13 10 2 0 9 -4 20 -10 23
-5 3 -10 3 -10 -2z"/>
<path d="M1850 7433 c-51 -18 -130 -57 -130 -64 0 -4 28 5 63 21 76 37 118 45
146 31 12 -7 21 -8 21 -2 0 18 -63 27 -100 14z"/>
<path d="M90 7390 c-27 -52 -12 -52 17 0 12 22 17 40 12 40 -5 0 -18 -18 -29
-40z"/>
<path d="M136 7394 c-24 -51 -12 -55 14 -5 11 23 17 41 12 41 -5 0 -16 -16
-26 -36z"/>
<path d="M446 7408 c-8 -32 -7 -58 2 -58 4 0 8 18 10 40 3 44 -2 52 -12 18z"/>
<path d="M872 7410 c0 -14 3 -34 8 -45 9 -20 9 -20 8 0 0 11 -4 31 -8 45 l-8
25 0 -25z"/>
<path d="M990 7420 c0 -8 5 -22 10 -30 9 -13 10 -13 10 0 0 8 -5 22 -10 30 -9
13 -10 13 -10 0z"/>
<path d="M1174 7401 c3 -18 6 -37 6 -42 0 -5 4 -9 9 -9 5 0 5 15 1 36 -11 46
-25 60 -16 15z"/>
<path d="M1565 7421 c-3 -6 1 -25 10 -43 11 -23 13 -26 9 -8 -3 14 -6 33 -7
43 -1 19 -3 21 -12 8z"/>
<path d="M830 7405 c0 -11 5 -27 10 -35 8 -12 10 -12 10 5 0 11 -5 27 -10 35
-8 12 -10 12 -10 -5z"/>
<path d="M1968 7405 c12 -25 50 -60 57 -53 3 2 -12 20 -31 39 -23 21 -33 26
-26 14z"/>
<path d="M1140 7403 c0 -4 5 -15 10 -23 8 -13 10 -13 10 2 0 9 -4 20 -10 23
-5 3 -10 3 -10 -2z"/>
<path d="M1307 7385 c6 -32 11 -41 17 -34 2 2 -2 18 -10 34 l-13 30 6 -30z"/>
<path d="M1333 7396 c4 -10 7 -24 7 -32 0 -8 4 -14 9 -14 11 0 1 49 -12 57 -7
4 -8 0 -4 -11z"/>
<path d="M1363 7396 c4 -10 7 -24 7 -32 0 -8 4 -14 9 -14 11 0 1 49 -12 57 -7
4 -8 0 -4 -11z"/>
<path d="M1423 7396 c4 -10 7 -24 7 -32 0 -8 4 -14 9 -14 11 0 1 49 -12 57 -7
4 -8 0 -4 -11z"/>
<path d="M2235 7379 c9 -17 19 -29 21 -26 7 7 -18 57 -28 57 -5 0 -1 -14 7
-31z"/>
<path d="M2202 7375 c6 -14 15 -25 19 -25 5 0 3 11 -3 25 -6 14 -15 25 -19 25
-5 0 -3 -11 3 -25z"/>
<path d="M392 7370 c0 -14 2 -19 5 -12 2 6 2 18 0 25 -3 6 -5 1 -5 -13z"/>
<path d="M760 7370 c0 -11 4 -20 9 -20 5 0 7 9 4 20 -3 11 -7 20 -9 20 -2 0
-4 -9 -4 -20z"/>
<path d="M1240 7383 c0 -4 5 -15 10 -23 8 -13 10 -13 10 2 0 9 -4 20 -10 23
-5 3 -10 3 -10 -2z"/>
<path d="M37 7373 c-4 -3 -7 -11 -7 -17 0 -6 5 -5 12 2 6 6 9 14 7 17 -3 3 -9
2 -12 -2z"/>
<path d="M226 7371 c-4 -7 -5 -15 -2 -18 9 -9 19 4 14 18 -4 11 -6 11 -12 0z"/>
<path d="M670 7365 c0 -8 4 -15 10 -15 5 0 7 7 4 15 -4 8 -8 15 -10 15 -2 0
-4 -7 -4 -15z"/>
<path d="M1080 7365 c0 -8 4 -15 10 -15 5 0 7 7 4 15 -4 8 -8 15 -10 15 -2 0
-4 -7 -4 -15z"/>
<path d="M1000 7360 c0 -5 5 -10 11 -10 5 0 7 5 4 10 -3 6 -8 10 -11 10 -2 0
-4 -4 -4 -10z"/>
<path d="M1690 7360 c-13 -8 -12 -10 3 -10 9 0 17 5 17 10 0 12 -1 12 -20 0z"/>
<path d="M1827 7361 c-10 -4 15 -7 56 -6 41 0 70 3 64 7 -15 10 -96 9 -120 -1z"/>
</g>
</svg>
